<?xml version="1.0" encoding="UTF-8" standalone="no"?>
<!-- Created with Inkscape (http://www.inkscape.org/) -->

<svg
   width="210mm"
   height="297mm"
   viewBox="0 0 210 297"
   version="1.1"
   id="svg1"
   xml:space="preserve"
   inkscape:export-filename="bitmap.svg"
   inkscape:export-xdpi="96"
   inkscape:export-ydpi="96"
   xmlns:inkscape="http://www.inkscape.org/namespaces/inkscape"
   xmlns:sodipodi="http://sodipodi.sourceforge.net/DTD/sodipodi-0.dtd"
   xmlns="http://www.w3.org/2000/svg"
   xmlns:svg="http://www.w3.org/2000/svg"><sodipodi:namedview
     id="namedview1"
     pagecolor="#ffffff"
     bordercolor="#000000"
     borderopacity="0.25"
     inkscape:showpageshadow="2"
     inkscape:pageopacity="0.0"
     inkscape:pagecheckerboard="0"
     inkscape:deskcolor="#d1d1d1"
     inkscape:document-units="mm"><inkscape:page
       x="0"
       y="0"
       width="210"
       height="297"
       id="page2"
       margin="0"
       bleed="0" /></sodipodi:namedview><defs
     id="defs1" /><g
     inkscape:label="Capa 1"
     inkscape:groupmode="layer"
     id="layer1"><path
       style="fill:#1f3a45;fill-opacity:1"
       d="m 96.314671,250.93914 c -13.72241,-0.77928 -26.78861,-4.26653 -38.86603,-10.37298 -21.5109,-10.87612 -38.40338,-29.41672 -47.190279,-51.7944 -10.03327043,-25.55182 -8.8475805,-54.4475 3.239249,-78.94156 8.02457,-16.26186 19.97672,-29.668922 35.17752,-39.459602 22.00556,-14.173555 48.68095,-18.877779 74.498459,-13.137853 26.6864,5.933106 49.96847,23.189403 63.70681,47.218475 13.88579,24.28697 16.65288,53.64176 7.56701,80.27492 -7.1176,20.8636 -21.45479,39.05914 -40.17704,50.98928 -13.72439,8.74542 -28.70889,13.73522 -45.32081,15.09173 -2.40563,0.19644 -10.086929,0.27668 -12.634889,0.13199 z M 133.36647,222.2563 c 0.28024,-0.14185 0.70202,-0.29942 0.93727,-0.35016 0.29327,-0.0632 0.81578,-0.48948 1.66206,-1.35579 1.09676,-1.12272 1.26719,-1.36621 1.5293,-2.18493 0.60568,-1.89189 0.23617,-3.53998 -1.14686,-5.11528 l -0.7969,-0.90768 0.055,-13.48879 c 0.0547,-13.40521 0.0533,-13.48903 -0.21966,-13.52782 -0.18528,-0.0263 -0.56221,0.25131 -1.15821,0.85313 -0.86348,0.8719 -0.88492,0.91125 -0.94434,1.7327 -0.0386,0.53428 0.0224,1.14916 0.16756,1.68758 0.20252,0.75116 0.21998,1.53889 0.1543,6.95849 -0.14676,12.10842 -0.21746,15.15564 -0.35549,15.32195 -0.14497,0.17467 -1.39714,0.34111 -2.85767,0.37983 l -0.87378,0.0232 -0.0615,-4.46341 c -0.0338,-2.45488 -0.0745,-7.36807 -0.0905,-10.9182 -0.0159,-3.55013 -0.0431,-6.53203 -0.0604,-6.62645 -0.0615,-0.33615 -0.45701,-0.16157 -1.24444,0.54934 -0.43924,0.39656 -0.90628,0.78282 -1.03787,0.85835 -0.2148,0.12331 -0.22533,0.24954 -0.10307,1.23602 0.0749,0.60428 0.14324,4.05838 0.15188,7.67577 0.009,3.90668 0.0692,6.67711 0.14754,6.82343 0.0725,0.13549 0.13453,1.00747 0.13782,1.93773 0.003,0.93027 0.0718,1.9695 0.15218,2.30941 0.0804,0.3399 0.17622,0.97939 0.2129,1.42107 0.0586,0.70597 0.027,0.84711 -0.26174,1.16736 -0.85846,0.95218 -1.18198,2.68307 -0.71311,3.81524 0.55838,1.3483 0.79215,1.69843 1.79843,2.69359 0.80616,0.79726 1.28062,1.14626 1.89721,1.39556 1.04,0.42049 2.20846,0.45999 2.92206,0.0988 z m -1.77149,-2.43695 c -0.46729,-0.14338 -0.85376,-0.42413 -1.47636,-1.0725 -0.8372,-0.87186 -0.84336,-0.88416 -0.84336,-1.68362 0,-0.82416 0.17004,-1.21942 0.74767,-1.73792 0.56741,-0.50932 0.99392,-0.6271 2.394,-0.66111 l 1.39308,-0.0338 0.68534,0.67504 c 0.652,0.6422 0.68535,0.71064 0.68535,1.40669 0,0.91207 -0.31386,1.5435 -1.1906,2.39525 -0.62339,0.60563 -1.22733,0.95322 -1.59939,0.92053 -0.0895,-0.008 -0.44758,-0.1017 -0.79573,-0.20852 z m -45.309389,1.80649 c 0.13017,-0.15685 0.13198,-0.4088 0.008,-1.13302 -0.17449,-1.02046 -0.12056,-21.33454 0.0601,-22.64797 0.0711,-0.51718 0.0481,-0.74465 -0.0869,-0.85628 -1.04287,-0.8625 -1.56341,-1.17083 -1.81419,-1.0746 -0.12938,0.0497 -0.16549,2.93091 -0.16062,12.81713 0.004,7.0142 0.0561,12.83035 0.11707,12.92477 0.16202,0.25105 1.66303,0.22703 1.87637,-0.03 z m 29.038569,-0.33493 c 0.1752,-0.19358 0.42696,-0.28739 0.77133,-0.28739 0.28119,0 0.57489,-0.0772 0.65268,-0.17167 0.0935,-0.11352 0.15073,-3.4978 0.16888,-9.99118 0.0151,-5.40073 0.0208,-9.89676 0.0127,-9.99118 -0.0281,-0.32736 -0.51254,-0.16921 -0.98347,0.32104 -0.2603,0.27099 -0.70503,0.61216 -0.98829,0.75814 -0.28325,0.14599 -0.52312,0.34143 -0.53303,0.43431 -0.0502,0.47041 0.0563,19.27343 0.10968,19.36193 0.0819,0.13582 0.46382,-0.0741 0.78951,-0.434 z m 6.39242,0.24409 0.39567,-0.29253 0.49146,0.30374 c 0.37549,0.23207 0.50566,0.26059 0.55164,0.12086 0.0971,-0.29506 0.22801,-26.28759 0.13364,-26.53352 -0.12773,-0.33284 -0.36995,-0.27351 -0.82049,0.20099 -0.22186,0.23364 -0.69236,0.57227 -1.04556,0.75251 -0.35321,0.18024 -0.67659,0.43713 -0.71864,0.57087 -0.042,0.13374 0.0152,0.54655 0.12719,0.91734 0.17307,0.57302 0.20362,2.42931 0.20362,12.37167 0,6.43362 0.0412,11.73869 0.0916,11.78905 0.13047,0.13047 0.1511,0.12345 0.58991,-0.20098 z m -28.944429,-2.48851 c 0.13584,-4.92882 0.12815,-12.99508 -0.0127,-13.25817 -0.0758,-0.14165 -0.17471,-1.02031 -0.21978,-1.95258 -0.0896,-1.8532 -0.0253,-1.70974 -1.15289,-2.57424 -0.76242,-0.58455 -0.76903,-0.5644 -0.79908,2.43402 -0.0151,1.50858 -0.0843,2.85272 -0.15376,2.98698 -0.0738,0.14267 -0.10434,2.92636 -0.0735,6.69888 0.029,3.55013 0.0519,6.81014 0.0508,7.24447 -0.002,0.8232 0.18389,1.02157 0.54731,0.58367 0.24007,-0.28926 0.73602,-0.2562 1.03002,0.0687 0.13672,0.15107 0.3534,0.27467 0.48153,0.27467 0.20801,0 0.24034,-0.26834 0.30203,-2.50637 z m -1.58005,-15.57154 c -0.0425,-0.0425 -0.044,-0.16392 -0.003,-0.26984 0.0827,-0.21541 0.59385,-0.26712 0.59385,-0.0601 0,0.1645 -0.48495,0.43545 -0.59049,0.32991 z m -11.87429,16.87623 c 0.27529,-0.28326 0.72044,-0.96136 0.98923,-1.50689 0.77081,-1.56448 0.65671,-2.94321 -0.3757,-4.53972 l -0.37992,-0.58752 0.23021,-0.64851 c 0.20342,-0.573 0.24079,-1.76786 0.32098,-10.26201 0.0679,-7.19396 0.13321,-9.69128 0.25944,-9.92251 0.21436,-0.39271 0.0267,-0.77767 -0.51587,-1.05825 -0.21563,-0.11151 -0.63095,-0.48295 -0.92294,-0.82544 -0.29199,-0.34248 -0.64748,-0.62269 -0.78998,-0.62269 -0.25242,0 -0.25688,0.27754 -0.17315,10.79267 0.0579,7.26552 0.04,10.87857 -0.0548,11.05553 -0.12741,0.23806 -0.30775,0.26286 -1.91141,0.26286 -1.42663,0 -1.81266,-0.0419 -1.98654,-0.21581 -0.19301,-0.19301 -0.21581,-1.52721 -0.21581,-12.6269 V 187.2349 l -0.68676,-0.7848 c -0.78933,-0.90201 -1.21586,-1.23655 -1.36011,-1.06678 -0.12006,0.14129 0.0679,24.34376 0.19799,25.49874 0.1184,1.05104 0.0479,1.2744 -0.66569,2.11045 -0.33167,0.38856 -0.79769,1.11007 -1.0356,1.60337 -0.37894,0.78571 -0.43257,1.03891 -0.43257,2.04245 0,1.02978 0.0495,1.24925 0.48967,2.17169 0.26932,0.56438 0.71447,1.2579 0.98922,1.54116 l 0.49956,0.51501 h 3.51498 3.51499 z m -4.15285,-0.12935 c -1.32257,-0.4269 -2.475,-1.35978 -2.92209,-2.36543 -0.24575,-0.55277 -0.25346,-0.67366 -0.0872,-1.36682 0.32847,-1.36921 1.39929,-2.21551 2.80326,-2.21551 0.96862,0 1.56387,0.3014 2.51685,1.27437 0.86161,0.8797 1.0296,1.50654 0.66169,2.46914 -0.45308,1.18546 -2.17438,2.46188 -2.97253,2.20425 z m 29.921379,-0.94202 c 0.99344,-0.34597 1.38632,-0.59754 2.31489,-1.4823 1.29434,-1.23327 1.411,-1.52444 1.411,-3.52189 0,-1.55982 -0.0236,-1.70368 -0.40052,-2.44318 -0.4787,-0.93916 -1.54003,-1.99929 -2.21637,-2.21385 -0.26849,-0.0852 -0.75745,-0.42924 -1.08656,-0.76458 -0.48323,-0.49237 -0.56713,-0.64738 -0.43595,-0.80544 0.13114,-0.15801 0.10234,-0.21184 -0.14945,-0.2793 -0.4302,-0.11527 -1.23971,-0.10445 -1.43403,0.0192 -0.0884,0.0563 -0.20265,0.26907 -0.25382,0.47294 -0.1107,0.44108 -0.27513,0.58657 -0.80687,0.71391 -0.54975,0.13166 -2.099829,1.65477 -2.513949,2.47019 -0.45018,0.88644 -0.72847,1.98642 -0.726,2.86963 0.006,2.27353 2.077799,4.89678 3.873329,4.90516 0.24791,0.001 0.54345,0.062 0.65675,0.13523 0.30306,0.19585 1.08386,0.16242 1.76755,-0.0757 z m -2.38556,-2.55522 c -0.15107,-0.0828 -0.59912,-0.46504 -0.99568,-0.84948 -0.70287,-0.68139 -0.72101,-0.71858 -0.72101,-1.47783 0,-0.65076 0.0734,-0.88819 0.44634,-1.44372 0.65519,-0.97597 1.28932,-1.28383 2.65017,-1.28661 1.09912,-0.002 1.10784,5.5e-4 1.59746,0.51275 0.69982,0.73208 0.79946,0.99222 0.79946,2.0872 0,1.0602 -0.10362,1.3266 -0.8174,2.10154 -0.47353,0.5141 -0.47631,0.515 -1.57952,0.51083 -0.60783,-0.002 -1.22875,-0.0719 -1.37982,-0.15468 z m 45.37229,-2.04454 c 1.51675,-0.57648 2.05955,-0.98152 2.85363,-2.12939 0.73159,-1.05754 1.00896,-1.8163 1.00896,-2.76002 0,-0.50701 -0.0576,-1.11163 -0.12803,-1.34359 -0.0704,-0.23197 -0.20745,-0.69987 -0.30453,-1.03977 -0.20127,-0.70469 -1.37704,-1.95171 -2.14128,-2.27104 l -0.45534,-0.19025 0.0737,-4.22845 c 0.0405,-2.32565 0.11956,-8.22495 0.17557,-13.10955 l 0.10185,-8.8811 0.96135,-1.00716 c 0.52874,-0.55394 1.17765,-1.30716 1.44202,-1.67383 0.26437,-0.36667 0.64563,-0.89194 0.84724,-1.16727 0.34673,-0.47353 1.91576,-2.01014 5.31739,-5.20751 l 1.50097,-1.41085 5.33436,0.069 c 10.50687,0.13588 17.44646,0.39474 17.86626,0.66644 0.11969,0.0775 0.1717,0.55567 0.17178,1.57936 1e-4,1.33648 0.0357,1.54221 0.39646,2.29227 0.51492,1.07052 1.82204,2.32219 3.13301,3.00011 0.32654,0.16886 0.80767,0.22728 1.87177,0.22728 1.23006,0 1.53637,-0.0477 2.16986,-0.33784 0.765,-0.35039 1.71751,-1.24356 2.3636,-2.21633 0.99551,-1.49889 1.23681,-3.68614 0.55507,-5.03149 -0.7682,-1.51596 -1.72242,-2.57431 -2.82949,-3.13826 -0.71715,-0.36533 -0.9092,-0.40028 -2.19932,-0.40028 -1.0715,0 -1.59538,0.0665 -2.16501,0.27467 -0.41331,0.15107 -0.76833,0.27467 -0.78894,0.27467 -0.0206,0 -0.41419,0.34634 -0.87464,0.76965 -0.75143,0.69081 -0.88143,0.76026 -1.26916,0.67807 -1.42872,-0.30285 -1.92247,-0.38697 -2.9727,-0.50648 -0.64205,-0.0731 -1.87807,-0.16153 -2.74672,-0.19659 -0.86865,-0.0351 -1.70296,-0.12418 -1.85403,-0.19803 -0.15107,-0.0739 -2.1287,-0.16447 -4.39474,-0.20135 -2.26605,-0.0369 -6.09877,-0.10117 -8.51718,-0.14285 l -4.3971,-0.0758 -1.30234,1.38135 c -2.63084,2.79048 -8.85295,8.84948 -9.79424,9.5375 l -0.52644,0.38479 0.0299,12.17285 c 0.0217,8.82161 -0.013,12.27928 -0.12591,12.55946 -0.0857,0.21264 -0.15581,0.82578 -0.15581,1.36254 0,1.21112 -0.19025,1.47824 -1.0528,1.47824 -0.67056,0 -1.65199,0.40857 -2.0785,0.86528 -0.15516,0.16614 -0.59508,0.92008 -0.9776,1.67543 l -0.69549,1.37336 -0.001,1.48027 c -0.001,1.36414 0.0302,1.54193 0.39839,2.26604 0.56684,1.1147 2.1652,2.48921 2.92123,2.51212 0.17522,0.005 0.44219,0.0628 0.59326,0.12768 0.51736,0.22232 1.89387,0.14816 2.66086,-0.14336 z m -3.07286,-2.31282 c -1.84881,-1.15676 -2.07929,-2.92135 -0.5876,-4.49859 l 0.69611,-0.73603 h 1.44172 1.44172 l 0.66706,0.66706 0.66706,0.66706 -0.002,0.94663 c -10e-4,0.81416 -0.0656,1.06195 -0.45865,1.77065 -0.61276,1.10487 -1.18773,1.43689 -2.49244,1.43926 -0.70476,0.001 -1.07131,-0.0671 -1.37335,-0.25604 z M 186.73447,173.039 c -1.00632,-0.67557 -1.28387,-1.2766 -1.28662,-2.78621 l -0.002,-1.24119 0.65707,-0.64718 0.65706,-0.64718 1.2313,5.1e-4 c 1.01447,4.2e-4 1.31596,0.0521 1.71198,0.29343 0.88886,0.54165 1.51077,1.53507 1.51059,2.41297 -1.5e-4,0.7106 -0.672,2.07535 -1.28788,2.6161 -0.47332,0.41557 -0.5739,0.44509 -1.51665,0.44509 -0.91123,0 -1.07458,-0.0435 -1.67459,-0.44634 z M 63.148081,214.09854 c 0.84847,-0.45561 1.39688,-1.10612 2.19447,-2.60299 0.42975,-0.80655 0.46823,-2.04262 0.0953,-3.06019 -0.47481,-1.29542 -1.19046,-2.56831 -1.70567,-3.03378 -0.46469,-0.41982 -0.59748,-0.46635 -1.33087,-0.46635 -0.85121,0 -1.50972,-0.17768 -1.68601,-0.45493 -0.057,-0.0897 -0.10464,-6.04254 -0.1058,-13.22854 -0.002,-10.33948 -0.039,-13.15317 -0.17885,-13.48583 -0.24062,-0.57225 -4.12042,-4.61273 -4.97335,-5.1793 -0.37767,-0.25088 -1.98356,-1.79876 -3.56863,-3.43974 -1.58508,-1.64098 -3.06831,-3.09724 -3.29606,-3.23613 -0.37692,-0.22986 -0.77322,-0.25258 -4.41391,-0.25305 -3.20532,-4.1e-4 -4.11578,0.0404 -4.58368,0.20549 -0.47792,0.16862 -1.48927,0.20601 -5.5729,0.20601 -2.79029,0 -5.12806,0.0568 -5.3045,0.12881 -0.17351,0.0708 -0.77897,0.26144 -1.34548,0.42353 -0.56651,0.16209 -1.3753,0.47318 -1.7973,0.69131 -1.24801,0.64509 -1.49653,0.60541 -2.38967,-0.38154 -1.28896,-1.42435 -2.1899,-1.81838 -4.16471,-1.82147 -1.90269,-0.003 -2.38,0.19849 -3.71798,1.56926 -1.46958,1.50561 -1.79811,2.20297 -1.79992,3.82067 -10e-4,1.33628 0.1757,1.85165 1.13329,3.29632 0.61132,0.92226 1.17779,1.33241 2.50417,1.8131 0.73788,0.26741 1.21578,0.34668 2.06004,0.3417 1.41097,-0.008 2.13668,-0.3666 3.55947,-1.75735 1.29631,-1.26711 1.54035,-1.85134 1.64473,-3.93744 0.0514,-1.02724 0.13563,-1.55085 0.27128,-1.6865 0.1627,-0.1627 0.8782,-0.19283 4.1365,-0.17418 2.64433,0.0151 3.99837,-0.0261 4.11799,-0.12536 0.12365,-0.10263 2.41107,-0.13631 7.47173,-0.11003 l 7.29352,0.0379 2.62296,2.60938 c 1.44263,1.43516 2.78055,2.85659 2.97316,3.15872 0.41302,0.64789 3.64706,3.83531 4.18754,4.12717 0.20548,0.11097 0.43723,0.32065 0.515,0.46598 0.20104,0.37564 0.19561,25.74351 -0.006,26.11945 -0.0808,0.15107 -0.41349,0.3889 -0.73921,0.52852 -0.5039,0.216 -0.67456,0.40411 -1.14429,1.26134 -0.52209,0.95278 -0.99089,2.39167 -0.99089,3.04136 0,0.48603 0.64856,2.03184 1.27477,3.03837 0.53076,0.8531 0.68533,0.99412 1.61315,1.47169 1.02438,0.52727 1.02901,0.52818 2.67418,0.52466 1.59116,-0.003 1.67647,-0.0188 2.47205,-0.44601 z m -3.57198,-1.7258 c -0.45389,-0.21473 -1.02555,-0.61854 -1.27036,-0.89736 -0.43999,-0.50112 -0.44509,-0.52305 -0.44509,-1.915 v -1.40808 l 0.66775,-0.65771 c 0.84234,-0.82967 1.38797,-0.93493 2.65714,-0.51258 1.23655,0.4115 2.30588,1.58471 2.30588,2.52989 0,1.00795 -0.98571,2.41799 -2.0889,2.98814 -0.67134,0.34696 -0.8503,0.33448 -1.82642,-0.1273 z m -41.89185,-39.00492 c -0.61491,-0.28296 -1.24252,-0.95306 -1.52582,-1.6291 -0.10186,-0.24306 -0.18519,-0.88187 -0.18519,-1.41958 v -0.97765 l 0.84578,-0.88079 0.84578,-0.8808 h 1.08239 c 1.23338,0 1.90077,0.25824 2.4962,0.96587 0.33372,0.3966 0.36061,0.52558 0.36061,1.72954 0,1.48691 -0.10451,1.76494 -0.98569,2.62225 -0.54766,0.53283 -0.66763,0.58547 -1.48737,0.65263 -0.69316,0.0568 -1.01522,0.0162 -1.44669,-0.18237 z m 49.78991,20.08256 v -11.07285 l -1.01137,-1.03455 c -1.32065,-1.35093 -1.46068,-1.31381 -1.46068,0.38722 0,0.68715 0.0591,1.35977 0.13131,1.49471 0.0722,0.13495 0.13026,0.85705 0.12897,1.60467 -10e-4,0.74763 -0.002,1.63742 -0.002,1.97733 0.0119,14.44195 0.0185,14.70693 0.40426,16.46897 0.17387,0.79409 0.63609,1.15605 1.56899,1.22864 0.22706,0.0177 0.24034,-0.593 0.24034,-11.05414 z m 74.448479,9.15015 c 0.0446,-0.94419 0.0922,-5.97908 0.10566,-11.18866 0.0154,-5.97313 0.0742,-9.52171 0.15918,-9.60664 0.0741,-0.0741 0.13468,-0.51741 0.13468,-0.9852 0,-1.26092 -0.20872,-1.25229 -1.55192,0.0642 l -1.10735,1.08528 0.0361,11.10202 c 0.0198,6.1061 0.0672,11.1524 0.10529,11.21398 0.0381,0.0616 0.512,0.0939 1.05321,0.0719 l 0.984,-0.0401 z M 106.32643,200.827 c 0.66787,-0.2201 1.48495,-0.5384 1.81572,-0.70735 0.33078,-0.16894 1.34568,-0.62828 2.25535,-1.02074 1.8529,-0.79943 2.99467,-1.52881 3.05741,-1.95313 0.0306,-0.20693 -0.1291,-0.39907 -0.59056,-0.7105 -0.34787,-0.23478 -0.74745,-0.42687 -0.88795,-0.42687 -0.1405,0 -0.5564,-0.23176 -0.92422,-0.51501 -1.20924,-0.93123 -1.49085,-1.10004 -3.58362,-2.14817 -1.13962,-0.57076 -2.28503,-1.22476 -2.54535,-1.45333 -0.27118,-0.23809 -0.62818,-0.41557 -0.83591,-0.41557 -0.3617,0 -2.46394,0.9794 -2.6102,1.21605 -0.0424,0.0686 -0.86594,0.51314 -1.830079,0.98784 -0.96414,0.4747 -1.87796,0.97398 -2.03071,1.10951 -0.15274,0.13553 -1.03077,0.62132 -1.95118,1.07953 -0.9204,0.45821 -1.70909,0.89076 -1.75263,0.96122 -0.0436,0.0705 -0.001,0.25317 0.0944,0.40602 0.2718,0.43522 4.91425,2.73822 6.839869,3.39308 1.52001,0.51692 1.8627,0.5846 2.99103,0.5907 1.05038,0.006 1.48774,-0.0634 2.48865,-0.39328 z m -61.441569,-8.33248 c 0.99545,-0.54043 2.48596,-2.04039 2.97,-2.9888 0.39055,-0.76526 0.4069,-0.86596 0.3455,-2.12871 -0.1276,-2.62453 -0.18001,-2.78056 -1.31904,-3.92724 -0.90802,-0.91413 -1.11276,-1.04877 -2.08186,-1.36906 -1.42997,-0.47261 -2.49019,-0.44917 -3.99392,0.0883 -0.60118,0.21488 -2.4738,2.2106 -2.83555,3.02195 -0.2828,0.63429 -0.31496,0.88758 -0.27467,2.16288 0.0397,1.2556 0.0957,1.54325 0.42854,2.20008 0.454,0.89593 1.98589,2.51275 2.76955,2.92308 1.0946,0.57314 2.95303,0.58131 3.99145,0.0175 z m -3.18511,-2.47603 c -0.9171,-0.43397 -1.49306,-1.1008 -1.76817,-2.04712 -0.32084,-1.10366 -0.12828,-1.75794 0.82117,-2.79019 1.26297,-1.37311 3.0533,-1.28171 4.60791,0.23525 0.37651,0.36739 0.68911,1.2777 0.68911,2.00672 0,1.18703 -0.36129,1.782 -1.60813,2.64826 -0.6138,0.42644 -1.77626,0.404 -2.74189,-0.0529 z m 123.351479,2.73474 c 0.80561,-0.19338 1.30549,-0.49518 1.92614,-1.16289 0.68586,-0.73785 1.03001,-1.23225 1.49094,-2.14186 0.32823,-0.64773 0.35965,-0.85291 0.35965,-2.34839 0,-1.56115 -0.0199,-1.67665 -0.42019,-2.44227 -0.56952,-1.08922 -1.64851,-2.1549 -2.69074,-2.65756 -0.78409,-0.37815 -0.97428,-0.41211 -2.30822,-0.41211 -1.418,0 -1.47982,0.0132 -2.51504,0.53707 -1.19613,0.6053 -1.95192,1.31117 -2.44344,2.28204 -0.30319,0.59887 -0.33456,0.8273 -0.33456,2.43629 v 1.77545 l 0.56441,1.08486 c 0.64864,1.24677 1.82658,2.42936 2.93766,2.94925 0.57769,0.27031 0.86106,0.31422 1.78536,0.27665 0.60428,-0.0246 1.34589,-0.104 1.64803,-0.17653 z m -2.74875,-2.65951 c -1.29984,-0.6743 -2.20821,-2.41347 -1.84128,-3.5253 0.20475,-0.62039 1.25035,-1.75868 1.93746,-2.10922 1.43616,-0.73267 3.32971,0.0786 3.8769,1.66103 0.44039,1.27357 0.23152,2.19753 -0.72445,3.2047 -0.99535,1.04864 -2.17227,1.32716 -3.24863,0.76879 z m -69.558429,2.13791 c 0.48191,-0.18886 1.28159,-0.5843 1.77707,-0.87877 0.49548,-0.29446 1.14807,-0.61624 1.45021,-0.71506 0.30214,-0.0988 0.64205,-0.25286 0.75535,-0.34231 0.1133,-0.0895 0.83064,-0.47451 1.59408,-0.85567 1.64022,-0.81891 2.596429,-1.44179 2.881659,-1.87711 0.16531,-0.2523 0.19166,-0.61484 0.13124,-1.80609 -0.11938,-2.35389 -0.1736,-2.57522 -0.80721,-3.29503 -0.712259,-0.80917 -3.040489,-2.80391 -4.584119,-3.92751 -0.64982,-0.473 -1.91539,-1.41621 -2.81236,-2.09602 -1.68994,-1.28079 -3.62952,-2.53952 -3.91432,-2.54028 -0.29624,-7.9e-4 -0.33012,-0.25607 -0.13156,-0.99142 0.42589,-1.57725 0.71766,-6.73802 0.84212,-14.8954 0.05,-3.27634 0.0296,-5.13536 -0.0568,-5.1888 -0.17938,-0.11086 -0.44509,0.31825 -1.01685,1.64217 -0.26097,0.60428 -1.16492,2.52011 -2.00879,4.25741 -1.98468,4.08596 -2.26012,4.67672 -3.29767,7.07279 -0.49945,1.1534 -0.85922,1.93486 -1.98972,4.32183 -0.86132,1.81862 -1.11144,2.71695 -1.25231,4.4978 -0.0755,0.95378 -0.0527,1.2616 0.11166,1.51248 0.21643,0.33032 2.19423,1.75344 2.43687,1.75344 0.0773,0 0.14055,0.0514 0.14055,0.11413 0,0.0628 0.16995,0.20124 0.37767,0.30771 0.61998,0.31777 1.69776,1.02771 2.57505,1.69619 1.13147,0.86217 2.80387,1.65816 4.80675,2.28778 1.10664,0.34789 1.6901,0.72783 1.80193,1.1734 0.12747,0.5079 -0.2374,0.78381 -0.75179,0.56849 -0.21293,-0.0891 -1.41571,-0.16253 -2.90417,-0.17722 -2.39666,-0.0237 -2.59912,-0.0465 -3.57073,-0.40234 -0.56651,-0.20749 -1.63258,-0.68098 -2.36905,-1.05221 -0.73646,-0.37122 -1.33902,-0.61582 -1.33902,-0.54355 0,0.0723 0.52009,1.17023 1.15575,2.43992 1.13364,2.26436 1.18159,2.33376 2.50638,3.62764 0.74284,0.72552 1.65963,1.52841 2.0373,1.7842 0.37768,0.2558 0.89418,0.63951 1.14779,0.8527 0.25361,0.21318 0.80982,0.54845 1.23602,0.74504 0.42621,0.19659 0.89852,0.46665 1.04959,0.60012 0.20084,0.17745 0.99708,0.66088 1.10698,0.67209 0.005,4.6e-4 0.40258,-0.15368 0.88449,-0.34254 z m -1.8513,-3.2749 c -0.45164,-0.23822 -0.91934,-0.52582 -1.03934,-0.63913 -0.12,-0.1133 -0.66084,-0.57681 -1.20186,-1.03001 -0.54103,-0.45321 -0.98489,-0.87037 -0.98636,-0.92702 -0.006,-0.23795 0.30259,-0.0619 1.05369,0.60074 0.43872,0.38706 1.23028,0.98962 1.75902,1.33903 0.52874,0.3494 0.98195,0.68163 1.00713,0.73828 0.0252,0.0566 0.13333,0.103 0.24034,0.103 0.10701,0 0.19456,0.0618 0.19456,0.13733 0,0.19641 -0.10832,0.16243 -1.02718,-0.32222 z m -8.35744,-13.22824 c -0.0504,-0.0504 -0.0916,-0.15542 -0.0916,-0.23347 0,-0.0861 0.064,-0.078 0.16252,0.0206 0.0894,0.0894 0.13058,0.19444 0.0916,0.23347 -0.039,0.039 -0.11216,0.0298 -0.16252,-0.0206 z m 34.045999,16.10993 c 0.29685,-0.25406 1.03414,-0.721 1.63842,-1.03765 1.81755,-0.95242 2.55391,-1.47373 3.75467,-2.65815 1.02044,-1.00656 1.23299,-1.30936 1.94987,-2.77774 0.44252,-0.90641 1.056,-1.98497 1.36328,-2.39678 0.5104,-0.68403 0.63881,-1.07617 0.33114,-1.01126 -0.0661,0.0139 -1.07808,0.37666 -2.24887,0.80604 -3.07908,1.12923 -3.21235,1.1565 -5.66027,1.15835 -1.98355,0.001 -2.16955,-0.0196 -2.29838,-0.26029 -0.25263,-0.47203 0.21622,-0.81841 1.70818,-1.26198 0.80548,-0.23947 1.72549,-0.63091 2.23773,-0.95208 0.47843,-0.29997 0.90086,-0.54541 0.93872,-0.54541 0.30447,0 5.48042,-3.81633 6.22588,-4.59047 0.46226,-0.48005 0.47379,-0.51963 0.47311,-1.62452 -10e-4,-2.13243 -0.0611,-2.30205 -3.01167,-8.54861 -0.3568,-0.75534 -1.06365,-2.26947 -1.57079,-3.36472 -0.50713,-1.09526 -1.22636,-2.51668 -1.59828,-3.15873 -0.77157,-1.33196 -1.17055,-2.13532 -1.97801,-3.98273 -0.81618,-1.86736 -1.25681,-2.64183 -1.41375,-2.48489 -0.15263,0.15262 0.10202,10.44924 0.32808,13.26575 0.28302,3.52621 0.54317,5.77959 0.74309,6.43641 0.11188,0.36757 0.17301,0.71751 0.13586,0.77763 -0.0372,0.0601 -0.53048,0.36338 -1.09626,0.6739 -1.08201,0.59384 -2.76187,1.73315 -4.2153,2.8589 -0.47638,0.36897 -1.51505,1.15837 -2.30816,1.75421 -0.79312,0.59584 -1.79022,1.36412 -2.21578,1.70728 -0.42557,0.34316 -1.15756,0.89789 -1.62665,1.23273 -0.46909,0.33484 -0.91492,0.76745 -0.99072,0.96135 -0.0858,0.21956 -0.10234,1.10376 -0.0437,2.34392 0.074,1.56539 0.1428,2.04571 0.32178,2.24539 0.25367,0.28301 1.91773,1.3908 3.38774,2.25529 1.66975,0.98194 5.33042,2.63362 5.84639,2.63787 0.20524,0.002 0.57883,-0.1904 0.89268,-0.45901 z m -3.09967,-2.28479 c 0,-0.0755 0.0618,-0.13734 0.13734,-0.13734 0.0755,0 0.13733,0.0618 0.13733,0.13734 0,0.0755 -0.0618,0.13733 -0.13733,0.13733 -0.0755,0 -0.13734,-0.0618 -0.13734,-0.13733 z m 5.76811,-2.57426 c 0,-0.0591 0.54076,-0.40191 1.20168,-0.76181 0.66093,-0.3599 1.33486,-0.74896 1.49761,-0.86458 0.21062,-0.14963 0.32347,-0.16565 0.39149,-0.0556 0.0559,0.0904 -0.0224,0.1855 -0.18837,0.22889 -0.15616,0.0408 -0.31887,0.18433 -0.36157,0.31886 -0.11879,0.37427 -2.54084,1.45547 -2.54084,1.13422 z m 4.18874,-10.33531 c 0.0467,-0.0755 0.11213,-0.13733 0.14544,-0.13733 0.0333,0 0.0606,0.0618 0.0606,0.13733 0,0.0755 -0.0654,0.13734 -0.14544,0.13734 -0.08,0 -0.10725,-0.0618 -0.0606,-0.13734 z m 0.48067,-0.21144 c 0,-0.0971 1.08696,-1.16192 1.18604,-1.16192 0.0419,0 0.25532,-0.12751 0.47419,-0.28335 0.41106,-0.2927 0.67448,-0.25933 0.67448,0.0855 0,0.19131 -0.15675,0.25467 -0.51501,0.20815 -0.0944,-0.0123 -0.1719,0.0577 -0.17218,0.15539 -2.9e-4,0.0977 -0.27332,0.28987 -0.60675,0.42698 -0.33343,0.1371 -0.64027,0.33796 -0.68186,0.44634 -0.0711,0.18528 -0.35891,0.28388 -0.35891,0.12295 z m -47.697239,5.4085 c -0.18242,-0.55457 -0.44073,-1.59543 -0.57403,-2.31301 -0.42138,-2.26849 -0.59345,-2.75455 -1.16446,-3.28929 -0.28627,-0.26809 -1.25148,-1.13635 -2.1449,-1.92947 -2.444,-2.16959 -8.79845,-8.17539 -10.97582,-10.3736 -1.05748,-1.06761 -2.50981,-2.47083 -3.22739,-3.11827 -0.72325,-0.65255 -1.5189,-1.52027 -1.78536,-1.94709 -0.26437,-0.42346 -0.60645,-0.96962 -0.76018,-1.21368 -0.34266,-0.54404 -0.67896,-0.62997 -0.89387,-0.22841 -0.16472,0.30778 -0.3941,1.91753 -0.46808,3.28481 -0.0225,0.41544 -0.0828,0.97165 -0.13407,1.23602 -0.0884,0.45594 -0.0451,0.52854 0.84116,1.41073 2.80017,2.78724 8.2573,8.05537 8.53489,8.2393 0.17695,0.11724 0.94975,0.82737 1.71734,1.57807 0.76759,0.75069 1.58073,1.46327 1.80698,1.5835 0.22625,0.12022 1.11981,0.93307 1.98569,1.80631 0.86589,0.87324 1.65165,1.58772 1.74614,1.58772 0.0945,0 0.72993,0.54076 1.41208,1.20168 0.68215,0.66093 1.61339,1.5107 2.06941,1.88837 0.45603,0.37767 1.15158,0.97731 1.54567,1.33253 0.45931,0.41399 0.7316,0.57876 0.7585,0.45897 0.0231,-0.10278 -0.10728,-0.64062 -0.2897,-1.19519 z m -2.85439,-1.8213 c -0.74672,-0.43296 -1.03901,-0.76338 -0.80387,-0.90871 0.10449,-0.0646 0.14205,-0.16533 0.0835,-0.2239 -0.0586,-0.0586 -0.16606,-0.0156 -0.23887,0.0955 -0.11427,0.17439 -0.15124,0.17007 -0.27023,-0.0315 -0.0758,-0.12846 -0.21374,-0.31481 -0.3065,-0.41411 -0.0928,-0.0993 -0.28744,-0.41306 -0.43264,-0.69725 -0.18074,-0.35374 -0.30853,-0.4722 -0.40514,-0.37558 -0.1701,0.1701 -0.36087,0.18437 -0.36087,0.027 0,-0.0628 0.15184,-0.19539 0.33744,-0.29472 0.25151,-0.1346 0.30667,-0.23669 0.21662,-0.40088 -0.18434,-0.3361 -2.58549,-2.761 -2.73396,-2.761 -0.0717,0 -0.2864,-0.1854 -0.47708,-0.41201 -0.19067,-0.2266 -0.40203,-0.412 -0.46967,-0.412 -0.0677,0 -0.20009,-0.14404 -0.2943,-0.32009 -0.0942,-0.17605 -0.33688,-0.41789 -0.53924,-0.53742 -0.20235,-0.11954 -0.92303,-0.74802 -1.60149,-1.39662 -0.67846,-0.6486 -1.28057,-1.17927 -1.33801,-1.17927 -0.0574,0 -0.10444,-0.0927 -0.10444,-0.206 0,-0.1133 -0.0927,-0.206 -0.206,-0.206 -0.1133,0 -0.20699,-0.0464 -0.2082,-0.10301 -0.003,-0.13074 -0.62698,-0.85894 -1.53209,-1.78737 -0.38767,-0.39766 -0.67198,-0.75589 -0.63181,-0.79607 0.0402,-0.0402 1.25676,1.1016 2.70352,2.53728 1.44675,1.43568 2.92195,2.84178 3.27822,3.12467 0.35627,0.28288 0.80227,0.67698 0.99111,0.87577 0.18883,0.19879 0.96135,0.85954 1.71669,1.46834 1.44791,1.167 5.04474,4.48442 5.13367,4.73487 0.0343,0.0966 -0.0827,0.11326 -0.34078,0.0485 -0.63552,-0.15951 -0.65411,-0.15704 -0.70906,0.0942 -0.0327,0.14932 0.0293,0.24034 0.16351,0.24034 0.25608,0 0.2918,0.35612 0.0444,0.44268 -0.0944,0.033 -0.3934,-0.0685 -0.66441,-0.22565 z m -13.4659,-14.29395 c -0.24937,-0.26437 -0.50517,-0.48068 -0.56847,-0.48068 -0.0633,0 -0.38428,-0.26265 -0.71332,-0.58368 -0.32903,-0.32102 -0.88165,-0.78648 -1.22805,-1.03437 -0.67552,-0.48339 -0.87981,-0.87864 -0.25215,-0.48784 0.61021,0.37994 1.57186,1.15777 2.17065,1.75572 0.30633,0.3059 0.72349,0.679 0.92702,0.82911 0.20353,0.15011 0.37006,0.32007 0.37006,0.37767 0,0.22779 -0.27393,0.0819 -0.70574,-0.37593 z m -3.62034,-2.95272 c -0.0467,-0.0755 0.0115,-0.13734 0.12923,-0.13734 0.11776,0 0.21411,0.0618 0.21411,0.13734 0,0.0755 -0.0581,0.13733 -0.12923,0.13733 -0.0711,0 -0.16743,-0.0618 -0.21411,-0.13733 z m 74.943219,20.15402 c 0.22734,-0.16995 1.14576,-1.00426 2.04094,-1.85403 0.89519,-0.84976 1.69227,-1.54503 1.7713,-1.54503 0.079,0 1.67333,-1.54969 3.54288,-3.44376 1.86955,-1.89407 3.58459,-3.53781 3.8112,-3.65275 0.2266,-0.11494 1.19394,-1.00639 2.14964,-1.981 0.9557,-0.97461 1.81149,-1.77201 1.90176,-1.77201 0.0903,0 0.79156,-0.58576 1.55842,-1.30168 3.83844,-3.58346 3.71182,-3.47736 5.01528,-4.20244 0.71293,-0.39659 0.74154,-0.53252 0.43135,-2.04935 -0.22125,-1.08194 -0.41729,-3.58158 -0.38774,-4.94409 0.046,-2.12252 2.5e-4,-3.48835 -0.15422,-4.60075 -0.0839,-0.60428 -0.21035,-1.59309 -0.28098,-2.19737 -0.27673,-2.36754 -0.35334,-2.88956 -0.44528,-3.03402 -0.0878,-0.13794 -0.17872,-0.56752 -0.52056,-2.45941 -0.21964,-1.21556 -0.38899,-2.04694 -0.53154,-2.60938 -0.0766,-0.30214 -0.20013,-0.83193 -0.27457,-1.17732 -0.12566,-0.58305 -0.27033,-0.98756 -1.00333,-2.80542 -0.15229,-0.37767 -0.36736,-0.93388 -0.47793,-1.23602 -0.3126,-0.85417 -1.83941,-3.93483 -2.181,-4.40062 -0.16855,-0.22984 -0.93665,-1.68043 -1.70688,-3.22354 -0.77023,-1.54311 -1.51055,-2.96189 -1.64514,-3.15284 -0.13459,-0.19096 -0.40047,-0.65645 -0.59084,-1.03441 -0.34581,-0.68656 -2.7323,-4.28759 -3.5713,-5.38881 -0.73957,-0.97072 -1.6661,-1.96084 -5.24704,-5.60715 -1.8864,-1.92084 -3.48802,-3.49244 -3.55917,-3.49244 -0.0711,0 -0.47446,-0.3115 -0.89626,-0.69222 -0.92293,-0.83306 -2.33614,-2.03558 -3.38283,-2.87851 -0.42207,-0.3399 -1.46151,-1.27724 -2.30988,-2.08297 -1.27791,-1.21369 -1.63554,-1.47999 -2.08507,-1.5526 -0.29843,-0.0482 -0.6662,-0.12218 -0.81727,-0.1644 -0.26225,-0.0733 -1.34786,-0.23786 -2.67805,-0.40596 -0.3399,-0.043 -0.67672,-0.13391 -0.74848,-0.20213 -0.0718,-0.0682 -0.54876,-0.12402 -1.06002,-0.12402 h -0.92955 l -0.55478,0.75098 c -0.30513,0.41304 -0.90964,0.99801 -1.34336,1.29992 -0.43371,0.30192 -1.21842,0.98369 -1.74379,1.51506 -0.52537,0.53137 -1.01357,0.96612 -1.08488,0.96612 -0.20065,0 -3.10063,2.89105 -3.45606,3.44542 -0.17374,0.27099 -0.81586,1.00906 -1.42694,1.64016 l -1.11104,1.14746 v 1.46746 c 0,0.99372 0.0665,1.62662 0.206,1.96049 0.17694,0.42348 0.206,1.95532 0.206,10.85736 0,7.26654 -0.0455,10.47988 -0.15235,10.75094 -0.0992,0.25179 -0.15136,1.75151 -0.14953,4.30068 0.002,3.16528 -0.0381,4.04544 -0.21124,4.60075 -0.11773,0.37767 -0.2822,0.73208 -0.36548,0.78758 -0.27028,0.1801 -2.23353,0.12071 -2.39382,-0.0724 -0.0835,-0.10057 -0.18284,-1.15724 -0.22926,-2.43771 -0.10499,-2.89602 -0.10496,-25.97814 4e-5,-29.57405 l 0.0797,-2.73074 -0.86409,-0.94915 c -0.47526,-0.52204 -2.725969,-2.84676 -5.001579,-5.16607 -2.27562,-2.3193 -4.2116,-4.36068 -4.30219,-4.5364 -0.155,-0.30066 -0.22275,-0.31531 -1.14994,-0.24862 -0.54188,0.039 -1.4024,0.13639 -1.91226,0.21649 -0.50986,0.0801 -1.31327,0.20424 -1.78536,0.27589 -2.3911,0.36289 -2.21274,0.28989 -3.39616,1.39001 -0.99736,0.92717 -1.96662,1.79209 -4.12298,3.67916 -0.41544,0.36356 -1.03345,0.84947 -1.37336,1.0798 -0.3399,0.23033 -0.95791,0.80406 -1.37335,1.27495 -0.41544,0.47089 -1.09612,1.08837 -1.51262,1.37218 -0.4165,0.28381 -1.88402,1.68832 -3.26116,3.12113 -2.42767,2.52583 -2.77255,2.92313 -3.54985,4.08945 -0.20136,0.30214 -0.65121,0.87356 -0.99966,1.26982 -0.34846,0.39626 -0.89621,1.02041 -1.21724,1.387 -0.32102,0.36659 -0.58367,0.7251 -0.58367,0.79668 0,0.0716 -0.23181,0.35651 -0.51513,0.63317 -0.28333,0.27666 -0.63521,0.73726 -0.78197,1.02356 -0.14677,0.2863 -0.43487,0.70594 -0.64024,0.93255 -0.20537,0.2266 -0.50749,0.65921 -0.67137,0.96135 -0.16389,0.30214 -0.44509,0.75593 -0.6249,1.00842 -0.17981,0.2525 -0.45754,0.80871 -0.61718,1.23603 -0.15964,0.42731 -0.37154,0.86964 -0.4709,0.98294 -0.24909,0.28404 -1.72109,3.2502 -1.72109,3.46808 0,0.0971 -0.3125,0.81814 -0.69445,1.60225 -0.38195,0.78412 -0.77992,1.64814 -0.88437,1.92007 -0.65857,1.71447 -1.35605,3.73273 -1.45231,4.20247 -0.17261,0.84232 -0.35278,1.56843 -0.61338,2.47204 -0.13071,0.45321 -0.2936,1.13302 -0.36199,1.51069 -0.0684,0.37768 -0.18706,1.02659 -0.26371,1.44203 -0.0767,0.41544 -0.16991,1.06435 -0.20724,1.44203 -0.0373,0.37767 -0.1256,0.81028 -0.19614,0.96135 -0.0705,0.15107 -0.16078,1.10898 -0.20051,2.1287 -0.0397,1.01972 -0.10571,2.7263 -0.14663,3.79239 l -0.0744,1.93837 0.36778,0.43707 c 0.23361,0.27764 0.39293,0.6602 0.43672,1.0487 0.0723,0.64108 0.33168,0.81327 0.55935,0.37127 0.24282,-0.47139 1.0972,-3.13827 1.25753,-3.9253 0.0897,-0.4405 0.12566,-0.95036 0.0798,-1.13302 -0.0458,-0.18266 -0.0436,-0.49039 0.005,-0.68384 l 0.0883,-0.35173 0.24274,0.39915 c 0.2698,0.44365 0.62819,0.76296 4.6577,4.14981 3.59934,3.02528 4.39972,3.72494 5.454,4.76766 0.47473,0.46953 1.31345,1.18936 1.86381,1.59964 0.55037,0.41027 1.68048,1.3465 2.51136,2.08051 1.72584,1.52462 2.98739,2.40162 3.45469,2.40162 0.37278,0 0.40216,0.18648 0.11588,0.73541 -0.13486,0.25856 -0.17564,0.57242 -0.11978,0.92175 0.0466,0.29133 0.0456,0.63172 -0.002,0.75643 -0.12843,0.33467 -0.49455,-0.0119 -0.50013,-0.47337 -0.002,-0.19847 -0.0951,-0.48082 -0.20601,-0.62744 -0.1109,-0.14663 -0.20163,-0.37767 -0.20163,-0.51344 0,-0.29913 -0.40584,-0.79934 -0.64853,-0.79934 -0.0965,0 -0.17549,-0.0618 -0.17549,-0.13733 0,-0.0755 -0.0773,-0.1394 -0.17167,-0.14191 -0.0944,-0.003 -0.72788,-0.52636 -1.40769,-1.16411 -0.67981,-0.63774 -1.28237,-1.161 -1.33902,-1.16278 -0.0566,-0.002 -0.103,0.0894 -0.103,0.20276 0,0.1133 -0.0685,0.206 -0.15223,0.206 -0.0952,0 -0.11878,-0.13324 -0.063,-0.35572 0.0793,-0.31599 -0.0762,-0.51623 -1.3928,-1.79332 -0.81515,-0.79069 -2.1619,-1.95154 -2.99278,-2.57967 -0.83088,-0.62814 -2.1905,-1.7562 -3.02138,-2.50682 -0.83089,-0.75061 -2.19051,-1.90787 -3.02139,-2.57169 -0.83088,-0.66383 -1.687,-1.35531 -1.90249,-1.53664 -0.63537,-0.53465 -0.88023,-0.32431 -0.40775,0.35026 0.26933,0.38452 7.73379,7.83099 11.63965,11.61161 4.84358,4.68826 5.67542,5.51767 5.83745,5.82044 0.21082,0.39391 0.36507,0.27669 0.4715,-0.3583 0.0478,-0.28493 0.36408,-0.97741 0.70295,-1.53886 0.33887,-0.56144 0.71538,-1.30305 0.83669,-1.64802 0.82041,-2.33301 2.2458,-5.28523 3.2204,-6.67 1.50212,-2.13431 1.92965,-2.82597 2.86243,-4.63089 0.81409,-1.57525 2.42909,-4.37365 3.40734,-5.90408 0.13082,-0.20467 0.20236,-0.40762 0.15897,-0.45101 -0.0434,-0.0434 -0.35538,-0.0169 -0.69332,0.0588 -1.83817,0.41194 -5.16838,0.28985 -7.66216,-0.28092 -3.74857,-0.85796 -5.70282,-1.94861 -8.44615,-4.71373 -1.81854,-1.83299 -3.68474,-4.14518 -5.43381,-6.73241 -0.7126,-1.05409 -1.5583,-2.17137 -1.87932,-2.48284 -0.32102,-0.31147 -0.58368,-0.65582 -0.58368,-0.76522 0,-0.1094 0.25316,-0.53582 0.56257,-0.94761 0.3094,-0.41178 0.68522,-0.98913 0.83514,-1.283 0.27205,-0.53327 0.45587,-0.54032 0.546,-0.0209 0.12009,0.69207 1.6239,0.95434 6.69122,1.16695 3.30674,0.13875 4.29778,0.2505 6.18121,0.69703 0.65091,0.15433 1.58519,0.37532 2.07616,0.49109 1.51959,0.35833 5.77117,1.82796 7.11618,2.45981 l 1.27941,0.60104 -0.0895,-1.1286 c -0.18393,-2.32053 -0.70141,-5.41666 -1.11746,-6.6859 -0.11229,-0.34254 -0.42485,-1.16357 -0.69459,-1.8245 -0.36869,-0.9034 -0.55375,-1.20168 -0.74553,-1.20168 -0.14032,0 -0.25512,0.0632 -0.25512,0.1404 0,0.25472 -1.10029,1.33975 -1.59816,1.57601 -1.57159,0.74577 -4.17136,-1.53762 -3.80968,-3.34606 0.11602,-0.58006 1.01826,-1.57793 1.74469,-1.92958 0.3961,-0.19175 0.86005,-0.28601 1.40614,-0.28566 1.31049,8.2e-4 1.67437,0.33839 2.46829,2.2898 0.34682,0.85246 0.83917,1.23675 2.34166,1.82773 1.73814,0.68367 2.13572,1.01089 2.71744,2.23655 0.78941,1.66328 1.70459,5.85383 2.01356,9.21998 0.2129,2.3195 0.22024,2.33854 1.21312,3.14697 l 0.8738,0.71147 -0.0235,3.91407 c -0.0129,2.15274 -0.0757,8.48735 -0.13949,14.07692 -0.0638,5.58956 -0.0854,10.21281 -0.0481,10.27389 0.0373,0.0611 0.2371,0.0739 0.44391,0.0284 0.38299,-0.0841 2.5444,0.18555 4.40457,0.54954 5.469459,1.07024 5.124209,1.05926 8.789489,0.27958 0.94419,-0.20085 2.72773,-0.51286 3.96343,-0.69337 1.23571,-0.1805 2.26904,-0.35049 2.29629,-0.37775 0.0273,-0.0272 -0.04,-0.97326 -0.14954,-2.10223 -0.15621,-1.61051 -0.19971,-4.60379 -0.20192,-13.89583 l -0.003,-11.84315 0.68639,-0.72307 c 0.77056,-0.81174 0.89874,-1.16947 1.02189,-2.85178 0.23321,-3.1859 0.80956,-6.27706 1.65091,-8.85448 0.56491,-1.73056 0.54209,-1.7067 2.63963,-2.75929 1.04389,-0.52385 1.94434,-0.97305 2.00099,-0.99823 0.17946,-0.0798 0.11186,0.33365 -0.1562,0.95534 -0.23867,0.55349 -0.43406,1.76001 -0.84244,5.20188 -0.0851,0.71758 -0.27381,1.99513 -0.41926,2.839 -0.30971,1.79685 -0.32774,2.24242 -0.0907,2.24242 0.0956,0 0.56572,-0.19124 1.04482,-0.42498 0.89661,-0.43743 2.79068,-1.16818 3.51955,-1.35789 0.22661,-0.059 0.69012,-0.2014 1.03002,-0.31648 0.78182,-0.26472 2.85777,-0.8288 3.8454,-1.04488 0.41544,-0.0909 1.00256,-0.21913 1.30469,-0.28498 2.04033,-0.44464 2.51642,-0.49305 7.62214,-0.77502 2.0772,-0.11472 4.11664,-0.23541 4.53208,-0.2682 l 0.75535,-0.0596 0.59215,0.75778 c 0.42221,0.5403 0.56736,0.83591 0.50576,1.03001 -0.0475,0.14972 -0.14189,0.27222 -0.20971,0.27222 -0.33012,0 -1.22668,1.04233 -2.35094,2.73318 -1.55737,2.34224 -1.45549,2.19415 -2.4658,3.58427 -0.93412,1.28528 -4.22979,4.64794 -5.20429,5.31008 -1.69389,1.15094 -3.87935,2.02702 -6.1672,2.47223 -1.27351,0.24783 -6.67696,0.34971 -7.80672,0.1472 -0.37987,-0.0681 -0.58368,-0.0547 -0.58368,0.0383 0,0.0786 0.48951,0.83642 1.08779,1.68398 1.00299,1.42092 2.07053,3.15986 2.07124,3.37392 3e-4,0.0925 3.44259,6.71464 3.93798,7.57579 0.15245,0.26502 0.55643,1.00664 0.89773,1.64803 1.54929,2.9116 1.7903,3.35553 2.07669,3.82513 0.34809,0.57077 1.09143,2.06988 1.35441,2.73148 0.20101,0.50569 0.33006,0.56126 0.44709,0.19254 0.0443,-0.13959 0.33986,-0.46219 0.65679,-0.71688 0.31694,-0.2547 0.94921,-0.81103 1.40506,-1.23629 0.45585,-0.42526 1.28541,-1.16351 1.84345,-1.64056 0.55805,-0.47705 2.07218,-1.9313 3.36473,-3.23167 1.29255,-1.30037 2.8445,-2.79586 3.44878,-3.32331 0.60428,-0.52744 2.24349,-2.09527 3.6427,-3.48405 2.87025,-2.84887 3.38587,-3.59524 3.25933,-4.7179 -0.054,-0.47933 -0.0111,-0.67042 0.20223,-0.89936 0.14895,-0.15988 0.31096,-0.25068 0.36002,-0.20176 0.049,0.0489 0.1251,0.74826 0.16899,1.55411 0.0708,1.30033 0.13919,1.6024 0.60773,2.6849 0.29035,0.67085 0.67732,1.39728 0.85992,1.61429 l 0.33199,0.39455 -0.37875,0.65176 c -0.49468,0.85124 -1.92155,2.3218 -4.79675,4.94364 -1.28409,1.17094 -3.60163,3.37724 -5.15009,4.90289 -1.54846,1.52565 -3.24799,3.16812 -3.77674,3.64992 -0.52874,0.4818 -1.73386,1.60895 -2.67804,2.50478 -1.21195,1.14989 -1.94603,1.73429 -2.49667,1.9876 -0.88468,0.40698 -0.93181,0.50217 -0.93562,1.88993 -0.001,0.52874 -0.0566,1.17765 -0.12249,1.44203 -0.0659,0.26437 -0.19569,0.85148 -0.28839,1.30469 -0.0927,0.4532 -0.31652,1.17164 -0.49739,1.59653 -0.52474,1.23267 -0.41018,1.50384 0.38437,0.90984 z m 1.46555,-3.1382 c 0.32234,-0.30974 0.61908,-0.53016 0.65941,-0.48983 0.10251,0.10251 -0.86865,1.05299 -1.07591,1.05299 -0.0933,0 0.0942,-0.25342 0.4165,-0.56316 z m 2.07863,-1.90889 c 0,-0.0755 0.0654,-0.13733 0.14544,-0.13733 0.08,0 0.10725,0.0618 0.0606,0.13733 -0.0467,0.0755 -0.11213,0.13734 -0.14544,0.13734 -0.0333,0 -0.0606,-0.0618 -0.0606,-0.13734 z m 7.96548,-7.67459 c 0,-0.0755 0.0618,-0.17553 0.13733,-0.22221 0.0755,-0.0467 0.13734,-0.0231 0.13734,0.0524 0,0.0755 -0.0618,0.17554 -0.13734,0.22222 -0.0755,0.0467 -0.13733,0.0231 -0.13733,-0.0525 z m -67.500539,-0.84022 c -0.0467,-0.0755 0.0115,-0.13734 0.12923,-0.13734 0.11776,0 0.21411,0.0618 0.21411,0.13734 0,0.0755 -0.0582,0.13733 -0.12923,0.13733 -0.0711,0 -0.16743,-0.0618 -0.21411,-0.13733 z m 56.258229,-0.27855 c -0.0797,-0.22873 -0.11007,-0.50683 -0.0674,-0.61801 0.0472,-0.12302 -0.004,-0.20213 -0.13006,-0.20213 -0.1618,0 -0.19189,-0.11733 -0.13634,-0.53154 0.0426,-0.31763 0.01,-0.5696 -0.0817,-0.62612 -0.0842,-0.052 -0.15303,-0.27342 -0.15303,-0.49201 0,-0.2186 -0.0718,-0.55512 -0.15965,-0.74783 -0.23359,-0.51267 -0.0221,-0.60029 0.38619,-0.15999 0.2721,0.29345 0.43331,0.36216 0.69542,0.29637 0.42639,-0.10701 2.05625,-1.16069 3.0761,-1.98864 1.27223,-1.03283 2.88231,-2.27064 3.01707,-2.31947 0.0695,-0.0252 0.12633,0.01 0.12633,0.0773 0,0.21993 -2.98138,2.85646 -3.85048,3.4051 -0.30657,0.19352 -0.59195,0.44192 -0.63419,0.552 -0.0422,0.11008 -0.15176,0.20014 -0.24337,0.20014 -0.0916,0 -0.36224,0.17469 -0.60138,0.38819 l -0.43481,0.3882 0.27134,0.29124 c 0.28002,0.30056 0.17984,0.50366 -0.18026,0.36548 -0.11248,-0.0432 -0.2526,-6.6e-4 -0.31138,0.0944 -0.0608,0.0983 -0.0371,0.19617 0.0548,0.22681 0.22775,0.0759 0.20214,0.58034 -0.0295,0.58034 -0.22727,0 -0.40388,0.60117 -0.28585,0.97303 0.1393,0.43891 -0.17215,0.29366 -0.32782,-0.15289 z m -36.550549,-0.88881 c 0,-0.40665 0.0377,-0.41495 0.50215,-0.11064 0.32675,0.2141 0.3346,0.24078 0.0982,0.33369 -0.45772,0.17987 -0.60032,0.12689 -0.60032,-0.22305 z m -17.91803,-3.67965 c -0.0588,-0.13545 -0.0683,-0.2848 -0.0213,-0.3319 0.13947,-0.13946 0.25189,0.0564 0.1877,0.32707 -0.0569,0.23992 -0.0643,0.24013 -0.16644,0.005 z m -7.35175,-1.26444 c 0,-0.1133 0.0618,-0.206 0.13734,-0.206 0.0755,0 0.13733,0.0927 0.13733,0.206 0,0.1133 -0.0618,0.20601 -0.13733,0.20601 -0.0755,0 -0.13734,-0.0927 -0.13734,-0.20601 z m -0.68668,-0.34334 c 0,-0.0755 0.0654,-0.13733 0.14544,-0.13733 0.08,0 0.10725,0.0618 0.0606,0.13733 -0.0467,0.0755 -0.11213,0.13734 -0.14544,0.13734 -0.0333,0 -0.0606,-0.0618 -0.0606,-0.13734 z m 59.799899,-0.75534 c -0.0608,-0.15107 -0.18334,-0.33648 -0.27239,-0.41201 -0.0891,-0.0755 -0.27828,-0.35179 -0.42052,-0.6139 -0.14223,-0.26211 -0.36676,-0.59822 -0.49895,-0.74691 -0.13218,-0.14869 -0.23758,-0.36684 -0.23422,-0.48479 0.007,-0.25166 0.0934,-0.14622 1.03711,1.26908 0.34261,0.5138 0.59514,1.00821 0.56119,1.09869 -0.0369,0.0983 -0.10622,0.0539 -0.17222,-0.11016 z m 10.31002,-1.44203 c 0.0467,-0.0755 0.11213,-0.13733 0.14544,-0.13733 0.0333,0 0.0606,0.0618 0.0606,0.13733 0,0.0755 -0.0654,0.13734 -0.14544,0.13734 -0.08,0 -0.10725,-0.0618 -0.0606,-0.13734 z m 1.0952,-0.96135 c 0.37144,-0.48601 1.72622,-1.55043 1.83497,-1.44169 0.0499,0.0499 -0.0327,0.18107 -0.18367,0.29141 -0.57201,0.41812 -1.09299,0.81864 -1.49623,1.15028 l -0.41747,0.34334 z m -66.229439,-1.93191 c -1.0052,-0.50889 -1.81696,-1.71622 -1.81696,-2.70233 0,-1.1398 1.53347,-2.50722 2.81167,-2.50722 0.97951,0 1.91717,0.57019 2.34371,1.42522 0.1104,0.22129 0.20072,0.75394 0.20072,1.18366 0,1.04277 -0.43381,1.86565 -1.24669,2.36484 -0.86652,0.53212 -1.56523,0.604 -2.29245,0.23583 z m 57.580769,0.0651 c -2.1475,-1.17395 -2.25258,-3.66311 -0.19778,-4.68528 1.19159,-0.59277 2.7124,-0.2424 3.40305,0.78402 0.28022,0.41645 0.31475,0.59994 0.25845,1.37336 -0.0925,1.27114 -0.39559,1.92292 -1.07477,2.31156 -0.7301,0.41778 -1.83707,0.51803 -2.38895,0.21634 z m 11.15212,-0.25755 c 0.13571,-0.18646 0.30387,-0.34096 0.37369,-0.34334 0.0698,-0.002 -0.0182,0.15019 -0.19561,0.33903 -0.41174,0.43827 -0.4954,0.4403 -0.17808,0.004 z m 1.55419,-1.38099 c 0.0956,-0.11513 0.20201,-0.18104 0.23658,-0.14647 0.0952,0.0952 -0.0983,0.35579 -0.26425,0.35579 -0.0911,0 -0.0806,-0.0788 0.0277,-0.20932 z m -78.078139,-1.5559 c -0.56613,-0.18504 -1.14007,-0.57085 -1.55898,-1.04796 -1.04096,-1.18559 -0.18438,-2.99819 1.69714,-3.59129 0.66095,-0.20834 0.85501,-0.21784 1.41271,-0.0691 1.20879,0.32233 1.97941,1.50331 1.68774,2.58648 -0.18865,0.7006 -0.85467,1.62186 -1.42307,1.96842 -0.43813,0.26714 -1.25622,0.3363 -1.81554,0.15348 z m 73.467919,-0.31705 c -0.82375,-0.41455 -1.23028,-1.08826 -1.22504,-2.0302 0.006,-1.06049 0.26187,-1.59884 0.95271,-2.0037 1.82497,-1.0695 3.71311,-0.0662 3.89001,2.06698 0.0559,0.67439 0.028,0.75279 -0.4607,1.29373 -0.28613,0.31671 -0.69177,0.66454 -0.90141,0.77295 -0.53881,0.27863 -1.59664,0.23185 -2.25557,-0.0998 z m 8.59021,-1.59522 c 0,-0.12538 0.77309,-0.99196 0.88494,-0.99196 0.17093,0 0.0564,0.27734 -0.27914,0.67615 -0.34034,0.40447 -0.6058,0.54286 -0.6058,0.31581 z m -3.15873,-3.50672 c -1.09326,-0.67011 -1.5055,-1.51541 -1.30829,-2.68266 0.10031,-0.59372 0.63641,-1.25325 1.29593,-1.5943 0.36971,-0.19119 0.52326,-0.20181 0.94779,-0.0656 0.6043,0.19393 0.89643,0.42941 1.41939,1.14414 0.42574,0.58187 0.52997,1.47975 0.23778,2.04846 -0.37698,0.73377 -1.33328,1.48042 -1.86476,1.45595 -0.13594,-0.006 -0.46347,-0.14396 -0.72784,-0.30601 z m -83.735039,-0.24371 c -0.31802,-0.15742 -0.79698,-0.52836 -1.06435,-0.82431 -0.39617,-0.43851 -0.48603,-0.64602 -0.48561,-1.12136 3e-4,-0.34018 0.11465,-0.77049 0.27438,-1.03246 0.34517,-0.56615 1.43617,-1.26752 1.97163,-1.26752 0.89295,0 2.28555,1.25687 2.28555,2.06278 0,0.40983 -0.486,1.29971 -1.05194,1.92615 -0.57785,0.6396 -1.03364,0.70024 -1.92966,0.25672 z m 63.450509,-20.94892 c -0.67563,-0.33315 -1.77942,-1.57931 -1.97393,-2.2285 -0.30943,-1.03281 0.20349,-2.04556 1.48127,-2.9247 0.48749,-0.33539 0.71136,-0.40798 1.07587,-0.34883 1.13891,0.18482 2.34201,1.1284 2.62836,2.06139 0.33752,1.09976 -0.63998,2.80917 -1.94804,3.40666 -0.6676,0.30494 -0.71162,0.30612 -1.26353,0.034 z m -14.46142,-0.0876 c -0.66029,-0.29744 -1.76351,-1.3429 -2.05712,-1.94943 l -0.296,-0.61146 0.26755,-0.60486 c 0.58847,-1.33032 2.40321,-2.11101 3.56261,-1.53262 0.5754,0.28704 1.33973,1.16156 1.53662,1.75814 0.1389,0.42087 0.1241,0.58054 -0.10094,1.08929 -0.49723,1.12407 -1.55856,2.04399 -2.32463,2.01489 -0.13461,-0.005 -0.39925,-0.0789 -0.58809,-0.16395 z m -13.950249,-0.1514 c -0.58351,-0.26441 -1.40247,-1.00648 -1.65966,-1.50385 -0.27604,-0.5338 -0.18082,-1.63398 0.18368,-2.12218 0.8286,-1.10983 2.09568,-1.55726 3.0122,-1.06368 0.45237,0.24362 1.56651,1.54812 1.75146,2.0507 0.13706,0.37247 -0.46611,1.54227 -1.1289,2.18941 -0.62444,0.60969 -1.43359,0.77821 -2.15878,0.4496 z m 38.367369,-0.63511 c -1.10586,-0.33335 -2.03139,-1.55767 -2.03139,-2.68719 0,-0.63096 0.0602,-0.77747 0.54574,-1.32911 1.28826,-1.46354 2.77077,-1.38736 3.90811,0.20082 0.82844,1.15682 0.31565,2.99493 -1.02655,3.67966 -0.56848,0.29002 -0.80729,0.31326 -1.39591,0.13582 z m -63.077139,-0.44402 c -1.34828,-0.47803 -2.59594,-2.07208 -2.35815,-3.01286 0.10522,-0.41631 1.21971,-1.54339 1.79706,-1.81736 1.3803,-0.655 3.82593,0.77308 3.82593,2.23408 0,1.05464 -1.56738,2.78157 -2.49871,2.75306 -0.19477,-0.006 -0.53953,-0.0766 -0.76613,-0.15692 z m 17.44164,-4.89703 c -1.8279,-0.83851 -2.36011,-2.82592 -1.13148,-4.22525 1.45711,-1.65955 3.61302,-1.1707 4.44504,1.00793 0.30066,0.78725 0.16386,1.38543 -0.51252,2.24111 -0.96303,1.21832 -1.70758,1.47781 -2.80104,0.97621 z m 28.062679,-0.0711 c -1.12849,-0.40307 -2.03755,-1.55564 -2.03755,-2.58336 0,-0.77172 0.37722,-1.36016 1.29343,-2.01773 1.2857,-0.92274 2.59761,-0.57896 3.46975,0.90923 0.24645,0.42053 0.36761,0.81329 0.35425,1.14832 -0.0421,1.05444 -0.7617,2.16817 -1.64529,2.54623 -0.53816,0.23026 -0.78368,0.2298 -1.43459,-0.003 z m -20.444319,-4.29239 c -1.05015,-0.70129 -1.78159,-1.75792 -1.78159,-2.57369 0,-0.79189 0.88597,-1.85357 1.89039,-2.26532 0.70294,-0.28816 1.38954,-0.001 2.45041,1.02359 1.104169,1.06677 1.155089,1.4484 0.3383,2.53545 -0.97894,1.30285 -2.11304,1.80383 -2.89751,1.27997 z m 12.625959,-0.30112 c -0.3387,-0.2148 -0.84521,-0.65853 -1.12557,-0.98607 -0.4496,-0.52526 -0.50975,-0.68174 -0.50975,-1.32615 0,-0.66859 0.0464,-0.77701 0.54622,-1.27685 0.75642,-0.75642 1.6404,-1.37648 1.96236,-1.37648 0.67598,0 2.57284,1.84259 2.57284,2.49923 0,0.55915 -1.01615,1.98656 -1.74182,2.44676 -0.79809,0.50614 -0.93455,0.50771 -1.70428,0.0196 z m -28.965139,-0.71518 c -1.05127,-0.64402 -1.9227,-1.69714 -1.9227,-2.32358 0,-0.64813 1.19578,-2.02756 2.07576,-2.39457 0.63093,-0.26314 1.25955,-0.1075 2.07361,0.5134 1.1507,0.87767 1.43928,1.6926 0.98705,2.78732 -0.2814,0.68119 -0.55183,0.97984 -1.17541,1.29811 -0.82359,0.42034 -1.48383,0.45899 -2.03831,0.11932 z m 45.046139,0.0445 c -0.57115,-0.2168 -1.40724,-0.93904 -1.73552,-1.49921 -0.34114,-0.5821 -0.35534,-0.66621 -0.19058,-1.12864 0.26794,-0.75205 0.64447,-1.21671 1.29479,-1.59782 0.72051,-0.42225 1.32236,-0.43617 2.01544,-0.0466 1.23793,0.69575 1.82465,2.09981 1.29131,3.09017 -0.49023,0.9103 -1.83094,1.50269 -2.67544,1.18214 z m -36.649769,-5.56025 c -1.02212,-0.49533 -1.70145,-1.73919 -1.4648,-2.68209 0.12739,-0.50756 1.09934,-1.41736 1.93267,-1.80907 0.59985,-0.28196 0.73133,-0.29883 1.15927,-0.14873 0.55709,0.19541 1.10665,0.66602 1.66772,1.42813 0.441,0.59902 0.51126,1.24664 0.19964,1.84024 -0.22475,0.42812 -1.10835,1.29724 -1.54732,1.52197 -0.45912,0.23505 -1.28306,0.17138 -1.94718,-0.15045 z m 28.677079,0.1212 c -0.89794,-0.41115 -1.91549,-1.60872 -1.91549,-2.25435 0,-0.68347 1.30325,-1.93943 2.3324,-2.24777 0.44657,-0.1338 0.59806,-0.1079 1.29375,0.22122 1.06196,0.50239 1.64294,1.27822 1.5552,2.07683 -0.0746,0.6793 -0.77236,1.74912 -1.38401,2.12208 -0.4823,0.29409 -1.3373,0.33134 -1.88185,0.082 z m 57.34232,64.59749 c 0.0453,-0.0732 0.40426,-0.12729 0.79778,-0.12011 1.07931,0.0197 2.75124,-0.17426 2.9633,-0.34372 0.26962,-0.21545 0.11303,-1.60342 -0.20732,-1.83767 -0.18733,-0.13698 -2.08743,-0.17472 -8.79619,-0.17472 -8.37412,0 -8.56311,0.006 -8.83191,0.27467 -0.21236,0.21236 -0.27467,0.45778 -0.27467,1.08187 0,0.49307 0.0692,0.86462 0.17781,0.95476 0.24503,0.20337 1.32998,0.23938 8.15724,0.27079 3.71287,0.0171 5.96245,-0.0225 6.01396,-0.10587 z M 45.019761,175.40246 c 0.31225,-0.15902 0.40328,-0.29181 0.37597,-0.54846 -0.0449,-0.42211 -0.0449,-0.5291 0,-0.95498 0.0339,-0.3214 -0.0129,-0.34713 -0.78798,-0.43366 -1.28893,-0.1439 -8.43878,-0.2112 -12.15422,-0.11441 -4.05239,0.10557 -4.28396,0.17019 -4.4985,1.25524 -0.094,0.47563 -0.0883,0.69956 0.0198,0.76675 0.26939,0.16753 4.79766,0.27537 10.79615,0.25711 4.93935,-0.015 5.90012,-0.05 6.24878,-0.22759 z m 129.498069,-14.8984 c 2.97118,-0.048 4.58469,-0.1247 4.70375,-0.22351 0.26039,-0.2161 0.23425,-1.88912 -0.0351,-2.24549 -0.20385,-0.26973 -0.37594,-0.2749 -9.5748,-0.28736 -5.15197,-0.007 -9.64532,0.0245 -9.98522,0.07 l -0.61801,0.0827 -0.0399,1.2139 c -0.0259,0.78704 0.0172,1.28265 0.12236,1.40939 0.1684,0.20292 1.78229,0.20086 15.42689,-0.0197 z M 38.833261,160.3444 c 7.29879,-0.0377 9.49438,-0.0876 9.57707,-0.21775 0.13584,-0.21384 0.14065,-1.492 0.006,-1.69415 -0.15483,-0.23309 -3.90513,-0.3366 -12.32036,-0.34006 -6.74537,-0.003 -7.56707,0.0202 -7.70975,0.2153 -0.16114,0.22037 -0.13666,1.88447 0.0317,2.15694 0.0506,0.0819 0.25895,0.0952 0.51506,0.033 0.23654,-0.0575 4.69148,-0.12645 9.89986,-0.15332 z m 155.676499,-0.92483 c 2.02892,-0.87036 3.29755,-2.88033 3.29471,-5.22004 -0.001,-0.8958 -0.0683,-1.25353 -0.35043,-1.8639 -0.42995,-0.93029 -2.19499,-2.76711 -3.11139,-3.23792 -0.5841,-0.3001 -0.81719,-0.33281 -2.3712,-0.33281 -2.36641,0 -2.59212,0.0875 -3.95868,1.53547 -0.61883,0.65567 -1.33711,1.448 -1.59617,1.76071 l -0.47101,0.56859 -1.03968,-0.0611 c -0.57182,-0.0336 -1.31778,-0.13455 -1.65769,-0.22429 -0.3399,-0.0898 -0.89611,-0.20992 -1.23602,-0.26704 -0.33991,-0.0571 -0.95792,-0.28122 -1.37336,-0.49797 -1.45869,-0.76107 -3.62785,-0.90607 -14.00825,-0.93642 l -8.17148,-0.0239 -0.0405,0.92243 c -0.0298,0.67821 0.0193,1.01373 0.18543,1.26726 l 0.22594,0.34482 8.26072,0.0545 c 7.60873,0.0502 10.36238,0.16105 10.80575,0.43507 0.0937,0.0579 0.57918,0.16066 1.07874,0.22828 0.49957,0.0676 1.31001,0.18429 1.80099,0.25927 0.49097,0.075 1.32529,0.19313 1.85403,0.26254 1.26385,0.16592 2.34356,0.35629 3.02139,0.53272 0.53241,0.13858 1.03002,0.57087 1.03002,0.89482 0,0.21057 0.79267,1.84042 1.12682,2.31692 0.31812,0.45363 1.2195,0.99971 2.35984,1.42965 1.21516,0.45816 3.07691,0.39485 4.34148,-0.14762 z m -4.31099,-2.60199 c -0.82312,-0.49826 -1.18089,-1.20237 -1.18174,-2.32573 -7.6e-4,-1.00855 0.19582,-1.54677 0.80465,-2.20313 0.54686,-0.58955 1.28589,-0.91444 2.08005,-0.91444 0.89057,0 1.38597,0.25357 2.36769,1.2119 l 0.78968,0.77087 -0.002,1.03432 c -0.002,0.92355 -0.0473,1.10049 -0.42063,1.65232 -0.61205,0.90462 -1.04404,1.08621 -2.59826,1.09223 -1.13271,0.004 -1.37511,-0.0376 -1.83894,-0.31834 z m -172.869369,2.65349 c 1.87632,-0.71315 2.43368,-1.24374 3.45599,-3.29004 0.94812,-1.89779 0.97247,-1.9227 1.87895,-1.9227 0.4087,0 0.87808,-0.0727 1.04306,-0.16168 0.16499,-0.0889 0.76349,-0.21455 1.33,-0.27917 0.56651,-0.0646 1.49353,-0.18349 2.06004,-0.26414 0.56651,-0.0807 1.6619,-0.13741 2.4342,-0.12612 0.80897,0.0118 1.52512,-0.0442 1.68949,-0.13218 0.19786,-0.10589 2.91514,-0.16679 8.86502,-0.19868 6.51015,-0.0349 8.6286,-0.0866 8.78236,-0.21417 0.26152,-0.21704 0.28706,-1.98826 0.031,-2.1484 -0.24471,-0.15303 -20.69848,-0.1745 -21.10508,-0.0222 -0.18318,0.0686 -0.56575,0.33502 -0.85016,0.59196 -0.28441,0.25695 -0.72164,0.4995 -0.97164,0.539 -1.17474,0.18565 -1.79634,0.24635 -3.14122,0.30675 l -1.45066,0.0652 -1.30878,-1.36819 c -0.84236,-0.8806 -1.55956,-1.49528 -2.0125,-1.7248 -0.65091,-0.32984 -0.83846,-0.3566 -2.49912,-0.3566 -2.18149,0 -2.39185,0.0856 -3.81017,1.55123 -0.547619,0.56588 -0.995679,1.05178 -0.995679,1.07978 0,0.028 -0.1236,0.38907 -0.27467,0.80238 -0.19759,0.54057 -0.27467,1.09352 -0.27467,1.97021 0,1.09857 0.0418,1.2972 0.42416,2.01454 0.49461,0.92799 2.055009,2.48763 2.823949,2.82257 1.91135,0.83257 2.67044,0.92372 3.87615,0.46546 z m -2.72336,-2.69282 c -0.70548,-0.36419 -1.16457,-0.71337 -1.47636,-1.12291 -0.40394,-0.53057 -0.4525,-0.68973 -0.4525,-1.48318 0,-0.92571 0.20384,-1.50369 0.73708,-2.08992 0.51178,-0.56264 0.96318,-0.70796 2.19911,-0.70796 1.13026,0 1.18889,0.0162 1.9963,0.55252 1.06568,0.70785 1.31194,1.16043 1.29567,2.38127 l -0.0126,0.94242 -0.96473,0.96472 c -0.88266,0.88267 -1.02143,0.97012 -1.63144,1.02816 -0.57365,0.0546 -0.80964,-0.0103 -1.69057,-0.46512 z M 176.3359,145.06515 c 0.70689,-0.43103 1.1488,-0.8642 1.51249,-1.48258 0.6562,-1.11573 3.06356,-2.8822 3.67929,-2.69979 0.15319,0.0454 0.64932,0.43323 1.10253,0.86188 1.5749,1.48959 2.26762,1.79643 4.06247,1.79948 0.97669,0.002 1.29077,-0.0549 1.83483,-0.33033 1.07125,-0.54233 2.288,-1.71443 2.78982,-2.68745 0.4226,-0.8194 0.44571,-0.94182 0.44571,-2.36108 0,-1.1844 -0.0533,-1.60324 -0.25518,-2.00641 -0.14035,-0.28025 -0.29528,-0.67649 -0.34428,-0.88053 -0.0977,-0.40672 -1.3099,-1.67274 -1.88779,-1.97158 -0.91744,-0.47443 -1.59484,-0.60619 -3.12653,-0.60815 -1.47438,-0.002 -1.60973,0.0219 -2.40337,0.42182 -1.21033,0.60993 -1.62635,1.07687 -2.48591,2.79015 -0.42056,0.83827 -0.84161,1.62444 -0.93566,1.74707 -0.23022,0.30015 -1.07472,0.80591 -1.34674,0.80655 -0.61988,0.001 -1.14973,0.45323 -2.11547,1.80375 -0.22661,0.31689 -0.81851,0.99871 -1.31535,1.51517 l -0.90334,0.939 -2.39272,0.002 c -1.31599,8.4e-4 -2.62338,0.0396 -2.90529,0.0862 -0.69653,0.11514 -0.77308,-0.14801 -0.32669,-1.12305 0.30175,-0.65911 0.3584,-0.99542 0.38854,-2.30648 0.0328,-1.42561 0.009,-1.58859 -0.3343,-2.2896 -0.79172,-1.61681 -2.88139,-3.00773 -4.26742,-2.84046 -1.14033,0.13762 -1.73583,0.33584 -2.45611,0.81752 -1.02609,0.68619 -1.70736,1.43865 -1.95647,2.16088 -0.22633,0.65623 -0.30564,3.1355 -0.10785,3.3716 0.0601,0.0718 0.19082,0.37767 0.29046,0.67981 0.0996,0.30214 0.34976,0.73474 0.55581,0.96135 0.20606,0.2266 0.5119,0.64197 0.67964,0.92304 0.16774,0.28107 0.58124,0.7542 0.91888,1.05141 0.78226,0.68857 0.89913,0.7037 6.3272,0.81882 2.3543,0.0499 4.32678,0.13713 4.3833,0.19378 0.0565,0.0567 0.63322,0.10277 1.28156,0.10249 0.92261,-4e-4 1.27337,-0.0582 1.61394,-0.26584 z m -12.95905,-3.47605 c -0.63986,-0.67425 -0.8666,-1.23104 -0.86407,-2.12188 0.003,-1.00584 0.40802,-1.76877 1.16789,-2.19914 0.98601,-0.55844 2.20587,-0.29352 3.00131,0.65181 0.33514,0.39828 0.36062,0.52288 0.36062,1.76351 v 1.33495 l -0.5208,0.50855 c -0.51292,0.50085 -0.53745,0.50854 -1.62109,0.50854 -1.06291,0 -1.11468,-0.0152 -1.52386,-0.44634 z m 22.00008,-0.63755 c -0.68499,-0.31654 -1.0478,-0.6355 -1.42276,-1.25081 -0.24185,-0.39688 -0.293,-0.69728 -0.29343,-1.72316 l -5.1e-4,-1.24249 0.51501,-0.48309 c 0.69287,-0.64994 1.11979,-0.80867 2.17497,-0.80867 1.02975,0 1.74487,0.29959 2.3055,0.96586 0.33372,0.39661 0.36062,0.52558 0.36062,1.72954 0,1.80892 -0.35377,2.39924 -1.70683,2.84815 -0.86349,0.28648 -1.2515,0.27939 -1.93257,-0.0353 z m -152.098639,4.10488 c 0.15533,-0.0831 2.12554,-0.14633 4.9694,-0.15941 l 4.71203,-0.0217 0.77454,-0.38426 c 0.426,-0.21134 0.90844,-0.55676 1.07209,-0.7676 0.6026,-0.77635 1.53058,-2.31605 1.59677,-2.64938 0.0375,-0.18883 0.12785,-0.53313 0.20076,-0.76509 0.23716,-0.7545 0.15575,-1.78595 -0.20217,-2.56123 -0.45254,-0.98023 -2.12491,-2.62485 -2.96132,-2.91217 -1.58608,-0.54484 -3.58754,-0.0688 -4.67267,1.11142 -1.11432,1.21196 -1.50232,2.10105 -1.50544,3.44977 -0.002,0.77556 0.0679,0.99379 0.68468,2.14486 0.37768,0.7048 0.68668,1.35377 0.68668,1.44217 0,0.18708 -5.35417,0.126 -6.53374,-0.0745 -0.84764,-0.1441 -1.30568,-0.51208 -2.11344,-1.69785 -0.8442,-1.23928 -1.83815,-2.25451 -2.88902,-2.95089 -1.14414,-0.75818 -1.51767,-1.16961 -2.05899,-2.26787 -0.55468,-1.12538 -1.61507,-2.23059 -2.6791,-2.79235 -0.79278,-0.41855 -0.88648,-0.43504 -2.47204,-0.43504 -1.52162,0 -1.70728,0.0291 -2.42048,0.37934 -1.18438,0.58164 -2.62946,2.27092 -2.97864,3.48199 -0.26316,0.91273 -0.20285,2.25814 0.14187,3.16491 0.4753,1.25023 1.95402,2.62344 3.40321,3.16038 0.64613,0.2394 2.67348,0.22768 3.38295,-0.0195 1.02598,-0.35752 2.26825,-1.39056 3.45492,-2.87305 0.0974,-0.12168 0.30639,-0.22123 0.46442,-0.22123 0.3032,0 1.1813,0.84137 1.76188,1.68819 0.18883,0.27543 1.10054,1.21339 2.02602,2.08435 l 1.68269,1.58356 h 1.10739 c 0.60907,0 1.2232,-0.062 1.36475,-0.13774 z m 7.25281,-3.56987 -0.66144,-0.68623 v -1.27597 -1.27598 l 0.67655,-0.66636 c 0.58397,-0.57519 0.76718,-0.67437 1.33902,-0.72483 1.56767,-0.13834 2.64787,1.09598 2.60067,2.97171 -0.0217,0.86164 -0.0666,1.00616 -0.43185,1.39063 -0.60436,0.6361 -1.31773,0.95325 -2.14413,0.95325 -0.681,0 -0.75094,-0.0348 -1.37882,-0.68622 z m -22.7086,-1.40815 c -1.02449,-1.07129 -1.16258,-1.3198 -1.16258,-2.09211 0,-0.52246 0.0807,-0.7092 0.51501,-1.19229 0.28325,-0.31504 0.78976,-0.74782 1.12557,-0.96174 0.53701,-0.34209 0.74035,-0.38894 1.68783,-0.38894 1.6218,0 2.37846,0.47952 2.81721,1.78536 0.23156,0.6892 0.24861,1.38884 0.0435,1.78537 -0.0977,0.18883 -0.52399,0.69869 -0.94736,1.13302 l -0.76976,0.78968 h -1.24429 -1.24429 z m 65.57331,4.57222 c 0.64716,-0.0723 2.01097,-0.20224 3.03069,-0.28868 1.01971,-0.0864 1.90441,-0.18789 1.96598,-0.22545 0.13032,-0.0795 -0.29669,-0.59036 -0.49347,-0.59036 -0.0731,0 -0.5116,-0.26728 -0.9744,-0.59394 -3.77431,-2.6641 -7.79114,-4.27101 -12.37766,-4.95161 -2.08706,-0.30971 -2.54071,-0.34593 -2.54071,-0.20284 0,0.11767 0.69609,1.03519 2.44847,3.22731 1.40225,1.75414 4.11393,3.36224 6.06635,3.59753 1.44564,0.17421 1.55734,0.1753 2.87475,0.028 z m 43.682769,-0.0589 c 2.11619,-0.29998 3.60609,-1.07046 5.04553,-2.60922 0.86265,-0.92218 3.05659,-3.94863 3.05659,-4.21645 0,-0.10687 -0.15069,-0.13434 -0.44634,-0.0814 -0.24549,0.044 -1.00256,0.17505 -1.68237,0.29127 -2.67516,0.45732 -4.35665,0.87947 -6.11144,1.53431 -0.71758,0.26778 -1.49009,0.55435 -1.7167,0.63681 -0.80251,0.29204 -2.35788,1.1126 -4.16926,2.19956 -2.15477,1.29301 -2.62665,1.66207 -2.40874,1.88384 0.0907,0.0923 1.16021,0.20643 2.66692,0.28454 1.3835,0.0717 2.54622,0.16116 2.58382,0.19876 0.12964,0.12964 1.88012,0.0625 3.18199,-0.12204 z m -73.892179,-9.55142 c 0.0782,-0.14611 0.14217,-0.41046 0.14217,-0.58746 0,-0.17699 0.0814,-0.44371 0.18098,-0.5927 0.0995,-0.14899 0.29215,-0.5799 0.42803,-0.95758 0.13588,-0.37767 0.4098,-0.9286 0.6087,-1.22428 0.50378,-0.74887 0.49754,-1.56857 -0.016,-2.10461 -0.20772,-0.21681 -0.37767,-0.46448 -0.37767,-0.55036 0,-0.0859 -0.30914,-0.50944 -0.68697,-0.94121 -0.37784,-0.43177 -0.84835,-1.13063 -1.04558,-1.55302 -0.19723,-0.42239 -0.46305,-0.89158 -0.59071,-1.04265 -0.12766,-0.15107 -0.46514,-0.6622 -0.74996,-1.13585 -0.58536,-0.97348 -3.5189,-6.81685 -3.5189,-7.00937 0,-0.0689 -0.1469,-0.34173 -0.32644,-0.6063 -0.32062,-0.47246 -0.48124,-0.85809 -1.38868,-3.33403 -1.16026,-3.16577 -1.49338,-4.21583 -1.65556,-5.21876 -0.0489,-0.30214 -0.14757,-0.85835 -0.21937,-1.23602 -0.20757,-1.09182 -0.36327,-2.10923 -0.5145,-3.36194 -0.0773,-0.64051 -0.21255,-1.46452 -0.3005,-1.83112 -0.10706,-0.44626 -0.13498,-1.46839 -0.0845,-3.09283 0.0586,-1.886576 0.0303,-2.604346 -0.12744,-3.226717 -0.29268,-1.154835 -0.22223,-7.729569 0.0849,-7.923472 0.35402,-0.223507 1.08168,-0.147115 1.75559,0.184306 0.35628,0.175214 0.92589,0.395706 1.26579,0.489981 0.33991,0.09428 0.80781,0.229024 1.03977,0.29944 0.23197,0.07042 0.58368,0.12803 0.78158,0.12803 0.1979,0 0.39398,0.05527 0.43573,0.122829 0.0418,0.06756 0.30805,0.152616 0.59178,0.189022 0.28373,0.03641 1.01028,0.200816 1.61456,0.365354 0.60427,0.164539 1.33044,0.357584 1.61369,0.428989 0.28326,0.07141 0.77767,0.196432 1.09869,0.277836 1.2316,0.312307 6.51968,2.096053 7.13136,2.405516 0.35324,0.178708 0.87855,0.411816 1.16736,0.518018 2.31595,0.851633 3.78943,1.521893 8.38956,3.816247 2.89029,1.441559 5.28862,2.675301 5.32963,2.741651 0.041,0.0663 0.48818,0.31743 0.99371,0.55794 0.50553,0.24052 1.06653,0.54969 1.24667,0.68706 0.49898,0.3805 0.86005,0.31201 2.52925,-0.47978 0.84588,-0.40125 1.97057,-0.8606 2.49932,-1.02079 2.28986,-0.693743 2.91162,-0.859055 3.23126,-0.85912 0.18671,-3.8e-5 0.67937,-0.131362 1.09481,-0.291832 0.41544,-0.160469 1.12616,-0.342582 1.57936,-0.404696 0.83847,-0.114914 1.57008,-0.263305 2.67805,-0.543181 0.75226,-0.190022 2.03314,-0.380483 3.50351,-0.520955 0.60507,-0.05781 1.18515,-0.157648 1.28907,-0.221873 0.18732,-0.115773 0.92158,-0.234188 3.1729,-0.511698 1.458739,-0.179814 8.456809,-0.188894 10.025509,-0.01301 0.64204,0.07199 1.53816,0.242081 1.99137,0.377986 0.4532,0.135904 1.19482,0.301631 1.64803,0.368281 0.4532,0.06665 1.22572,0.183703 1.71669,0.260118 0.49098,0.07641 1.23259,0.172718 1.64803,0.214005 0.41544,0.04129 0.81406,0.131432 0.88582,0.200321 0.0718,0.06889 0.3006,0.125252 0.50855,0.125252 0.20794,0 0.52003,0.05557 0.69354,0.123494 0.17351,0.06792 0.71718,0.227075 1.20815,0.353672 2.4502,0.631781 7.76146,2.340956 8.61096,2.771026 0.3504,0.17739 0.78747,0.32253 0.97128,0.32253 0.18575,0 1.01416,-0.45073 1.86509,-1.01479 0.842,-0.55814 1.90171,-1.21097 2.35492,-1.450733 0.45321,-0.239768 1.28752,-0.697702 1.85403,-1.017629 0.56651,-0.319928 1.15362,-0.649987 1.30469,-0.733463 0.3275,-0.180966 3.99346,-1.881912 5.3561,-2.485144 0.52874,-0.234071 1.42486,-0.591 1.99137,-0.793177 2.97102,-1.060302 4.90481,-1.700329 5.15009,-1.704531 0.15107,-0.0026 0.60526,-0.158605 1.00932,-0.346704 0.40406,-0.188099 0.85518,-0.341998 1.0025,-0.341998 0.14732,0 0.46564,-0.10313 0.70738,-0.229178 0.24174,-0.126049 0.68673,-0.283377 0.98886,-0.349618 0.9713,-0.21295 1.4884,-0.341552 2.57253,-0.639792 0.584,-0.160658 1.20288,-0.292105 1.37529,-0.292105 0.17241,0 0.65163,-0.123602 1.06494,-0.274672 0.41331,-0.151069 0.90684,-0.276471 1.09675,-0.27867 0.3643,-0.0042 1.96438,-0.42647 4.23166,-1.116707 0.77806,-0.236868 0.88285,-0.02471 0.7858,1.591005 -0.0457,0.761054 -0.13864,3.701275 -0.2065,6.533826 -0.12878,5.3751 -0.28058,8.34658 -0.43878,8.5888 -0.0513,0.0785 -0.12726,0.53065 -0.16892,1.00488 -0.0417,0.47423 -0.14367,1.12075 -0.2267,1.43672 -0.083,0.31596 -0.21266,0.82167 -0.28807,1.12381 -0.52992,2.12337 -1.95932,6.12995 -2.6948,7.55347 -0.11708,0.22661 -0.9158,1.80029 -1.77493,3.49707 -0.85914,1.69678 -1.64204,3.18001 -1.73978,3.29606 -0.0977,0.11605 -0.28243,0.44012 -0.41041,0.72017 -0.12799,0.28005 -0.2912,0.54533 -0.36269,0.58951 -0.0715,0.0442 -0.23621,0.30947 -0.36605,0.58951 -0.12983,0.28005 -0.37869,0.70042 -0.55301,0.93415 -0.17433,0.23373 -0.31696,0.46878 -0.31696,0.52232 0,0.25877 -1.29823,2.02167 -1.97906,2.68742 -0.83641,0.81787 -0.92932,1.13549 -0.49402,1.68887 0.47541,0.60439 1.91056,3.69632 2.00357,4.31654 0.0491,0.32713 0.14165,0.62719 0.20576,0.66682 0.0641,0.0396 0.25784,-0.16433 0.4305,-0.45324 0.17265,-0.2889 0.39089,-0.64653 0.48497,-0.79474 0.15361,-0.24201 1.32186,-2.42863 2.16177,-4.04621 0.17649,-0.3399 0.79135,-1.57592 1.36636,-2.74671 0.57501,-1.17079 1.13268,-2.28321 1.23927,-2.47205 0.10658,-0.18883 0.28937,-0.56657 0.40619,-0.83942 0.11681,-0.27285 0.30017,-0.56894 0.40745,-0.65798 0.10729,-0.089 0.2349,-0.32931 0.28357,-0.53393 0.12425,-0.52228 0.73161,-1.75483 0.95684,-1.94176 0.10345,-0.0859 0.26248,-0.35489 0.35342,-0.59787 0.0909,-0.24299 0.58525,-1.33791 1.09848,-2.43316 0.51322,-1.09525 1.06109,-2.30037 1.21749,-2.67805 0.30882,-0.74573 1.42639,-4.19324 1.64723,-5.08142 0.0751,-0.30214 0.22982,-0.92015 0.34377,-1.37336 0.11395,-0.45321 0.27128,-1.16392 0.34963,-1.57936 0.0784,-0.41544 0.18134,-0.94075 0.22886,-1.16736 0.0475,-0.2266 0.11439,-0.72101 0.14858,-1.09868 0.0342,-0.37768 0.12001,-0.81028 0.1907,-0.96135 0.20266,-0.43312 0.28102,-3.61635 0.31103,-12.634891 l 0.0279,-8.377483 -0.68667,0.02145 c -0.78488,0.02451 -1.52345,0.148762 -1.92271,0.323457 -0.15106,0.0661 -0.52187,0.148986 -0.82401,0.18419 -0.30214,0.0352 -1.07465,0.227742 -1.7167,0.427862 -0.64204,0.200119 -1.44546,0.42505 -1.78536,0.499844 -0.33991,0.07479 -0.86522,0.199082 -1.16736,0.276194 -0.30214,0.07711 -0.85835,0.191316 -1.23602,0.253787 -0.37767,0.06247 -1.30469,0.280117 -2.06004,0.483657 -0.75534,0.20354 -1.58966,0.423396 -1.85403,0.488567 -1.36852,0.337364 -1.76309,0.430272 -2.26604,0.533577 -0.30214,0.06206 -1.10555,0.300985 -1.78536,0.530945 -0.67982,0.229961 -1.51413,0.491855 -1.85404,0.581988 -0.3399,0.09013 -0.74161,0.209394 -0.89268,0.265023 -0.6289,0.231584 -1.2726,0.459888 -1.85403,0.65758 -0.33991,0.11557 -0.83432,0.300729 -1.09869,0.411465 -0.26437,0.110735 -1.00685,0.373522 -1.64996,0.583971 -0.64311,0.210449 -1.56563,0.574624 -2.05004,0.809277 -0.48442,0.234653 -0.95516,0.426642 -1.0461,0.426642 -0.0909,0 -0.83705,0.339848 -1.65802,0.755218 -0.82098,0.41537 -1.56684,0.755276 -1.65747,0.755347 -0.0906,7.1e-5 -0.43054,0.178098 -0.75535,0.395616 -0.32481,0.217519 -0.88037,0.526361 -1.23458,0.686318 -0.35421,0.159956 -0.68334,0.354453 -0.73139,0.432216 -0.0481,0.07776 -0.59257,0.395259 -1.21002,0.705548 -0.61745,0.31029 -1.70975,0.949593 -2.42733,1.420675 -1.96184,1.287923 -1.83721,1.249018 -2.53038,0.789878 -0.32678,-0.216449 -0.9881,-0.502364 -1.46959,-0.635366 -0.4815,-0.133003 -1.06524,-0.29962 -1.29721,-0.37026 -0.23196,-0.07064 -0.52859,-0.128437 -0.65916,-0.128437 -0.13057,0 -0.43519,-0.103131 -0.67693,-0.229179 -0.24174,-0.126048 -0.65582,-0.275916 -0.9202,-0.33304 -0.26437,-0.05712 -0.85148,-0.204575 -1.30469,-0.327671 -1.24494,-0.338138 -1.87986,-0.493134 -2.3347,-0.569944 -0.22661,-0.03827 -0.53561,-0.122955 -0.68668,-0.188196 -0.28928,-0.124925 -0.7093,-0.208465 -2.06004,-0.409728 -0.45321,-0.06753 -1.25662,-0.227409 -1.78536,-0.35529 -1.17916,-0.285187 -2.51266,-0.46687 -4.05141,-0.551985 -0.64205,-0.03551 -1.29096,-0.122886 -1.44203,-0.194159 -0.7814,-0.368658 -10.354479,-0.369503 -11.124189,-9.82e-4 -0.15107,0.07233 -0.86178,0.158423 -1.57936,0.191321 -1.62262,0.07439 -3.00676,0.268478 -3.39448,0.475981 -0.16254,0.08699 -0.46955,0.159063 -0.68223,0.160162 -0.21269,0.0011 -0.66481,0.104253 -1.00472,0.229231 -0.3399,0.124977 -0.98882,0.273511 -1.44202,0.330075 -0.45321,0.05656 -1.08667,0.169713 -1.4077,0.251444 -0.32102,0.08173 -0.81543,0.203157 -1.09868,0.269836 -0.28326,0.06668 -0.88582,0.229355 -1.33903,0.361503 -0.4532,0.132148 -1.05615,0.269524 -1.33988,0.30528 -0.28373,0.03576 -0.55003,0.120285 -0.59178,0.187841 -0.0418,0.06755 -0.23513,0.122828 -0.42973,0.122828 -0.61719,0 -3.23824,0.988512 -4.06877,1.534507 -0.95142,0.625479 -1.21797,0.647281 -1.80762,0.147857 -0.24525,-0.207721 -0.77316,-0.563077 -1.17313,-0.789681 -0.93411,-0.529218 -1.79485,-1.041251 -2.20968,-1.31447 -0.85124,-0.560658 -1.8051,-1.088906 -1.96625,-1.088906 -0.0981,0 -0.33549,-0.123603 -0.52755,-0.274672 -0.19205,-0.151069 -0.41747,-0.274672 -0.50093,-0.274672 -0.0835,0 -1.3923,-0.618011 -2.90853,-1.373357 -1.51623,-0.755347 -2.86271,-1.373358 -2.99218,-1.373358 -0.12947,0 -0.29411,-0.05417 -0.36587,-0.120376 -0.0718,-0.06621 -0.48868,-0.251811 -0.9265,-0.412455 -0.43782,-0.160644 -1.03769,-0.415363 -1.33304,-0.566043 -0.51311,-0.261768 -6.72647,-2.336873 -9.22124,-3.079657 -0.72587,-0.216121 -1.52243,-0.35355 -2.04922,-0.35355 -0.60362,0 -0.93582,-0.06702 -1.10898,-0.223724 -0.13596,-0.123048 -0.48074,-0.272816 -0.76616,-0.332817 -1.30174,-0.27365 -3.15983,-0.786894 -3.47167,-0.958947 -0.18883,-0.10419 -0.68324,-0.233728 -1.09868,-0.287861 -0.41544,-0.05413 -1.03345,-0.167071 -1.37336,-0.250972 -0.33991,-0.0839 -0.98882,-0.208622 -1.44203,-0.277155 -0.4532,-0.06853 -1.27675,-0.232422 -1.8301,-0.364198 -0.86825,-0.206767 -1.02319,-0.212564 -1.13091,-0.04232 -0.25548,0.403739 -0.0284,16.093964 0.27515,19.012274 0.28412,2.73145 0.47666,3.89766 0.84057,5.09118 0.0707,0.23196 0.1286,0.5647 0.1286,0.73941 0,0.6999 2.16345,7.68317 2.61858,8.45233 0.13408,0.22661 0.37495,0.75192 0.53527,1.16736 0.45177,1.17069 4.21119,8.83968 4.54434,9.27016 0.0585,0.0755 0.3377,0.53905 0.62055,1.03002 1.61153,2.79738 2.68639,4.78637 3.54387,6.55779 0.50337,1.03987 0.66791,1.17264 0.90478,0.73004 z m 7.00896,-18.87087 c 0,-0.1013 -0.092,-0.48756 -0.20452,-0.85835 -0.11248,-0.3708 -0.20518,-0.86267 -0.206,-1.09305 -8.2e-4,-0.23038 -0.0573,-0.47758 -0.12551,-0.54934 -0.0682,-0.0718 -0.15539,-0.40858 -0.19372,-0.74848 -0.0383,-0.33991 -0.13401,-0.86522 -0.21261,-1.16736 -0.0786,-0.30214 -0.2055,-0.84101 -0.28202,-1.19749 -0.0765,-0.35648 -0.26494,-0.89478 -0.41872,-1.19622 -0.31903,-0.62535 -0.35976,-1.08621 -0.10465,-1.1841 0.0962,-0.0369 0.48248,0.0329 0.85835,0.15517 1.09053,0.35474 1.95827,0.49558 3.46536,0.56246 1.20268,0.0534 1.42094,0.0303 1.49301,-0.15747 0.0854,-0.22248 -0.29207,-0.75908 -0.53394,-0.75908 -0.0718,0 -0.41117,-0.18944 -0.75425,-0.42098 -0.34307,-0.23154 -1.27905,-0.75917 -2.07995,-1.17251 -0.8009,-0.41334 -1.85788,-0.99629 -2.34886,-1.29543 -2.05847,-1.25422 -4.37445,-2.30614 -4.67219,-2.12212 -0.17042,0.10532 -0.17409,0.94725 -0.007,1.49923 0.0704,0.23196 0.19676,0.69986 0.28076,1.03976 0.97556,3.94742 2.66418,7.23159 5.01953,9.76237 0.11134,0.11963 0.20244,0.26251 0.20244,0.3175 0,0.055 0.10816,0.24872 0.24034,0.43051 0.26284,0.36146 0.58368,0.44665 0.58368,0.15498 z m -7.18859,-0.39951 c -0.21062,-1.2181 -0.26681,-1.44279 -0.47228,-1.88836 -0.12191,-0.26437 -0.26794,-0.78968 -0.32451,-1.16736 -0.0566,-0.37767 -0.17122,-0.99568 -0.25477,-1.37335 -0.43334,-1.95889 -0.64495,-3.6423 -0.80277,-6.38612 -0.0587,-1.01972 -0.18013,-2.02801 -0.26995,-2.24065 -0.19163,-0.45369 -0.22524,-4.727708 -0.0395,-5.020973 0.16589,-0.261885 0.61985,-0.236375 1.66217,0.0934 0.49063,0.155233 1.13927,0.348288 1.44141,0.429011 1.46287,0.390842 3.78982,1.188222 4.49383,1.539922 0.43217,0.2159 0.87497,0.39254 0.984,0.39254 0.10904,0 0.65156,0.23823 1.20561,0.52941 0.55405,0.29118 1.1815,0.57151 1.39435,0.62297 0.82717,0.19996 7.55912,3.64391 10.02915,5.13073 0.40782,0.24549 0.85757,0.44456 0.99945,0.44237 0.3337,-0.005 2.59266,-2.01317 2.59266,-2.30467 0,-0.22962 -0.72997,-0.70327 -2.56466,-1.6641 -0.57968,-0.30358 -1.09074,-0.61146 -1.13569,-0.68419 -0.045,-0.0727 -0.43588,-0.30279 -0.86874,-0.51125 -0.43285,-0.20847 -0.97241,-0.51474 -1.19901,-0.68062 -0.46763,-0.3423 -2.43405,-1.34032 -2.95272,-1.4986 -0.18884,-0.0576 -0.50739,-0.22026 -0.70788,-0.36142 -0.2005,-0.14116 -0.45802,-0.25665 -0.57227,-0.25665 -0.11426,0 -0.63002,-0.22502 -1.14616,-0.50005 -0.51613,-0.275026 -1.376,-0.639781 -1.91083,-0.810566 -0.53482,-0.170785 -1.41252,-0.532155 -1.95043,-0.803045 -1.05968,-0.533647 -1.68825,-0.768538 -5.31731,-1.987045 -0.2266,-0.07609 -1.06092,-0.330745 -1.85403,-0.56591 -0.79311,-0.235165 -2.12184,-0.642557 -2.95272,-0.905316 -0.83088,-0.26276 -1.68471,-0.476192 -1.8974,-0.474295 -0.21268,0.0019 -0.50857,-0.06177 -0.65753,-0.141494 -0.14895,-0.07972 -0.39399,-0.105855 -0.54452,-0.05808 -0.26672,0.08465 -0.27198,0.18189 -0.20668,3.818676 0.0629,3.501455 0.18585,6.066775 0.46196,9.637255 0.15527,2.00781 0.96594,4.16702 2.42344,6.45478 0.80363,1.26142 1.31341,2.14568 1.31341,2.27823 0,0.25836 1.13903,1.36117 1.40588,1.36117 0.23138,0 0.26063,-0.067 0.19503,-0.44635 z m 93.866539,-0.34257 c 0.31307,-0.28283 0.7162,-0.7471 0.89587,-1.0317 0.17966,-0.2846 0.4141,-0.62485 0.52097,-0.75611 0.79693,-0.97875 1.20085,-1.55124 1.43643,-2.0359 0.15003,-0.30867 0.36487,-0.63764 0.47741,-0.73104 0.11255,-0.0934 0.37113,-0.61338 0.57462,-1.15548 0.20349,-0.54211 0.42348,-1.04437 0.48885,-1.11612 0.0654,-0.0718 0.11886,-0.23222 0.11886,-0.35658 0,-0.12435 0.0997,-0.42597 0.22158,-0.67027 0.30254,-0.60646 1.01493,-3.34554 1.01234,-3.89237 -0.004,-0.84563 -0.15011,-0.89683 -1.19202,-0.41769 -1.5729,0.72333 -2.60686,1.1413 -2.82331,1.1413 -0.11349,0 -0.2821,0.0913 -0.3747,0.20285 -0.0926,0.11157 -0.51731,0.37287 -0.94383,0.58067 -0.42651,0.2078 -1.15908,0.6396 -1.62792,0.95954 -0.46883,0.31995 -1.21045,0.77221 -1.64803,1.00503 -0.43757,0.23282 -0.95009,0.50721 -1.13893,0.60975 -0.18884,0.10255 -0.51001,0.26289 -0.71373,0.35631 -0.40867,0.18742 -0.59934,0.52114 -0.40742,0.71307 0.24672,0.24672 3.38412,-0.0202 4.76055,-0.40508 0.2266,-0.0634 0.58196,-0.094 0.78968,-0.0682 0.32359,0.0403 0.37739,0.10963 0.37567,0.48424 -0.002,0.44144 -0.29147,1.40627 -0.58063,1.93538 -0.0863,0.15796 -0.20444,0.56531 -0.26247,0.90522 -0.058,0.3399 -0.16375,0.95791 -0.23493,1.37335 -0.0712,0.41544 -0.18953,0.90985 -0.26298,1.09869 -0.22722,0.58414 -0.34897,1.78536 -0.18096,1.78536 0.0824,0 0.40597,-0.23141 0.71903,-0.51424 z m 8.59133,-0.89345 c 0.85481,-1.27945 3.03633,-5.64823 3.51461,-7.03846 0.18219,-0.52955 0.35545,-2.50221 0.5006,-5.69943 0.0634,-1.39739 0.1883,-3.313222 0.27748,-4.257406 0.0892,-0.944183 0.14256,-2.321592 0.11864,-3.060909 -0.0487,-1.506063 -0.13747,-1.654054 -0.93618,-1.561422 -0.48494,0.05624 -2.5943,0.547235 -3.37448,0.785475 -0.23197,0.07083 -0.58368,0.12879 -0.78157,0.12879 -0.1979,0 -0.39802,0.0618 -0.4447,0.137336 -0.0467,0.07554 -0.2468,0.137336 -0.4447,0.137336 -0.42571,0 -0.28848,-0.04065 -4.6062,1.364566 -1.87157,0.609113 -3.4922,1.107478 -3.60139,1.107478 -0.10919,0 -0.49373,0.130852 -0.85454,0.290782 -3.58173,1.587609 -5.5547,2.545694 -7.3168,3.553094 -0.64205,0.36706 -1.44546,0.81989 -1.78537,1.00629 -0.33991,0.18639 -0.74161,0.47586 -0.89268,0.64326 -0.15107,0.1674 -0.55278,0.44594 -0.89269,0.61899 -0.3399,0.17305 -0.8478,0.49797 -1.12867,0.72204 -0.28086,0.22408 -0.69358,0.48318 -0.91715,0.57578 -0.61994,0.25679 -0.6605,0.56563 -0.12687,0.96621 0.2508,0.18828 0.86265,0.72903 1.35968,1.20169 0.49702,0.47266 0.9961,0.85938 1.10908,0.85938 0.11297,0 0.35522,-0.1607 0.53834,-0.35711 0.18312,-0.1964 0.68853,-0.53731 1.12312,-0.75757 0.43459,-0.22025 1.36379,-0.78572 2.06487,-1.25659 0.70109,-0.47087 1.58153,-1.0074 1.95655,-1.1923 0.37501,-0.18489 0.77454,-0.41193 0.88784,-0.50452 0.11331,-0.0926 0.55573,-0.29901 0.98318,-0.4587 0.42744,-0.15968 0.85311,-0.38184 0.94593,-0.49369 0.0928,-0.11184 0.36111,-0.29288 0.59619,-0.40231 0.85282,-0.39699 2.50308,-1.05247 3.17414,-1.26077 0.37767,-0.11723 0.81028,-0.26118 0.96135,-0.31987 0.15107,-0.0587 0.55278,-0.17938 0.89268,-0.26817 0.33991,-0.0888 0.80342,-0.22655 1.03002,-0.30613 0.2266,-0.0796 0.69011,-0.23351 1.03002,-0.34209 0.33991,-0.10858 1.3708,-0.44138 2.29087,-0.739545 0.92007,-0.298171 1.82242,-0.542129 2.00521,-0.542129 0.18279,0 0.53361,-0.07016 0.7796,-0.155912 0.62057,-0.216331 0.71518,-0.01622 0.62568,1.323266 -0.0404,0.60427 -0.11913,1.8712 -0.175,2.81538 -0.0559,0.94418 -0.16284,1.8094 -0.23769,1.9227 -0.0748,0.1133 -0.1803,1.13302 -0.23433,2.26604 -0.12163,2.55053 -0.38466,4.63171 -0.78107,6.18011 -0.38935,1.52083 -0.45372,1.85517 -0.52217,2.71238 -0.0671,0.84051 -0.05,0.92702 0.1829,0.92702 0.17134,0 0.5397,-0.42323 1.10567,-1.27036 z m -50.37005,-7.3818 c 0.53934,-0.52874 1.04482,-0.96135 1.1233,-0.96135 0.20993,0 1.76838,-1.52082 1.98237,-1.9345 0.10105,-0.19534 0.89901,-1.09145 1.77325,-1.99137 0.87425,-0.89993 1.57256,-1.72893 1.5518,-1.84223 -0.0446,-0.24323 -1.12615,-0.42093 -2.78065,-0.45685 l -1.09758,-0.0238 -0.35996,0.66545 c -0.39532,0.73082 -3.09174,3.52329 -3.4021,3.52329 -0.25553,0 -2.91782,-2.61223 -3.61634,-3.54835 l -0.546929,-0.73296 -0.70786,0.0737 c -1.38441,0.1442 -2.35831,0.30132 -2.52755,0.40775 -0.46808,0.29439 -0.13249,0.74648 2.53942,3.4209 1.491109,1.4925 2.768229,2.71364 2.838059,2.71364 0.0698,0 0.51311,0.3708 0.98508,0.82401 0.47197,0.45321 0.94969,0.82401 1.0616,0.82401 0.11192,0 0.64476,-0.4326 1.18409,-0.96135 z"
       id="path2" /></g></svg>
