<?xml version="1.0" encoding="UTF-8" standalone="no"?>
<!-- Created with Inkscape (http://www.inkscape.org/) -->

<svg
   width="210mm"
   height="297mm"
   viewBox="0 0 210 297"
   version="1.1"
   id="svg1"
   xml:space="preserve"
   xmlns="http://www.w3.org/2000/svg"
   xmlns:svg="http://www.w3.org/2000/svg"><defs
     id="defs1" /><g
     id="layer1"><path
       style="fill:#254652;fill-opacity:1;stroke:none"
       d="m 98.473833,181.33109 h 36.037337 9.50436 c 0.94162,0 2.63133,0.31494 3.43213,-0.28443 1.26324,-0.94549 0.52801,-5.35716 0.52801,-6.80451 V 153.36916 128.9517 c 0,-3.84803 0.72808,-8.5341 -0.57202,-12.20873 -2.11635,-5.98169 -7.003,-9.5815 -11.70443,-13.47774 -6.11307,-5.06613 -12.18172,-10.205162 -18.21668,-15.359374 -3.59172,-3.067543 -7.31549,-7.451125 -11.88044,-9.079965 -9.258667,-3.303638 -15.812425,4.987044 -22.176826,10.261455 -5.597285,4.638668 -11.017809,9.49782 -16.632619,14.112244 -3.899569,3.20479 -8.266493,6.23698 -10.670396,10.78657 -2.59417,4.90968 -2.734215,13.54451 -1.562057,18.8929 0.440833,2.01147 4.344348,1.11406 5.896218,1.20337 5.70464,0.32831 12.217981,2.11771 17.028633,5.19637 14.859037,9.50929 20.98878,25.0129 20.98878,42.05229 M 64.020552,124.61957 c 0,-1.79705 -0.42682,-4.2192 0.253008,-5.90745 1.014093,-2.51833 4.064614,-4.38305 6.083228,-6.0606 3.84762,-3.19753 7.741648,-6.40825 11.484427,-9.72543 4.416607,-3.914367 8.963737,-7.662927 13.464498,-11.475764 1.5558,-1.317999 3.68221,-3.83441 5.940227,-3.730448 1.88063,0.08658 3.40701,1.771646 4.75217,2.877154 3.62993,2.983183 7.19642,6.047793 10.6924,9.178422 4.61153,4.129586 9.47593,8.159546 14.25653,12.088406 2.34072,1.92367 5.85676,4.05513 7.23827,6.84826 1.11733,2.25901 0.28601,6.56253 0.28601,9.05809 v 21.66065 15.7532 c 0,1.41431 0.59918,4.60651 -0.28601,5.77618 -0.95074,1.25629 -5.38688,0.5251 -6.84225,0.5251 h -17.02864 c -1.6944,0 -5.18214,0.66014 -6.63324,-0.28443 -1.20661,-0.78543 -1.12744,-3.53525 -1.43006,-4.83536 -1.08273,-4.65162 -2.13686,-9.0855 -4.30116,-13.39022 -7.347403,-14.61374 -21.085367,-26.59616 -37.929408,-28.35576 m -8.97633,22.73275 c -1.330277,0.99567 -1.464328,8.22487 0,9.27688 1.311261,0.94204 4.244378,0.14155 5.808212,0.37195 3.75327,0.55297 7.565449,2.38894 10.263384,5.0651 3.363026,3.33587 5.022993,8.00883 5.819216,12.56973 0.281536,1.61268 -0.556322,4.85347 0.440018,6.17 0.776602,1.02619 7.276305,1.00262 8.294302,0.24068 2.08321,-1.55922 0.19052,-9.77845 -0.264006,-11.9243 -2.26309,-10.68422 -11.632123,-20.91474 -22.968855,-21.67158 -1.829308,-0.12213 -5.776796,-1.30758 -7.392271,-0.0985 m 2.640095,24.32994 c -5.051261,1.81401 -3.354143,11.02236 1.980073,9.46286 6.149818,-1.79796 3.964843,-11.5978 -1.980073,-9.46286 z"
       id="path2" /></g></svg>
