<?xml version="1.0" encoding="UTF-8" standalone="no"?>
<!-- Created with Inkscape (http://www.inkscape.org/) -->

<svg
   width="64"
   height="64"
   viewBox="0 0 210 297"
   version="1.1"
   id="svg1"
   xml:space="preserve"
   xmlns="http://www.w3.org/2000/svg"
   xmlns:svg="http://www.w3.org/2000/svg"><defs
     id="defs1" /><g
     id="layer1"><path
       style="fill:#000000"
       d="m 63.541066,169.46237 c -1.29941,-1.29224 -1.53747,-1.78592 -1.53747,-3.18834 0,-2.91248 2.05712,-5.12843 4.76086,-5.12843 1.89545,0 4.34748,2.53934 4.34748,4.50227 0,1.9313 -0.88065,3.51499 -2.51224,4.5178 -2.02575,1.24508 -3.27394,1.07154 -5.05863,-0.7033 z m 21.31198,1.27896 c -0.15214,-0.15129 -0.28283,-1.35319 -0.29043,-2.67088 -0.0749,-12.98765 -7.8403,-21.49656 -19.61821,-21.49656 -2.43018,0 -2.58671,-0.0567 -2.99069,-1.08303 -0.28627,-0.7273 -0.31557,-2.31194 -0.0892,-4.82442 l 0.33709,-3.74138 3.4197,-0.11313 c 10.63916,-0.35197 19.95439,5.46869 24.92047,15.57167 2.39565,4.8737 3.1933,8.50583 3.05751,13.92254 l -0.11252,4.4883 -4.17855,0.11099 c -2.29821,0.061 -4.30303,-0.0128 -4.45517,-0.1641 z m 20.942904,-0.63609 c -0.0992,-0.48737 -0.28153,-2.92419 -0.40515,-5.41517 -0.73797,-14.86911 -7.236564,-26.91095 -18.636284,-34.53283 -5.77283,-3.85973 -12.17835,-5.87882 -20.17995,-6.36094 -4.19467,-0.25275 -4.34852,-0.29429 -4.6137,-1.24604 -0.5172,-1.8562 -0.35999,-11.91581 0.22945,-14.68214 1.19127,-5.59084 2.26536,-6.77607 18.8229,-20.770439 5.77141,-4.877979 12.67628,-10.726355 15.34414,-12.99639 6.507914,-5.537453 7.966804,-6.293402 12.145444,-6.293402 4.98958,0 4.98833,-7.79e-4 19.45703,12.208731 3.20858,2.707581 6.86849,5.808993 8.13312,6.892025 1.26464,1.083033 4.91568,4.17411 8.11343,6.86906 6.02281,5.075816 8.19688,7.430035 10.00127,10.829975 l 1.05742,1.99247 0.22669,18.51001 c 0.30541,24.93734 0.23934,44.78904 -0.15106,45.38891 -0.25062,0.3851 -5.65966,0.49228 -24.84238,0.49228 h -24.522 z m 40.06661,-35.42778 0.10184,-25.87741 -1.2676,-1.43576 c -0.69719,-0.78966 -4.01712,-3.76577 -7.37762,-6.61357 -3.36051,-2.847799 -7.67464,-6.506991 -9.58697,-8.13154 -19.4944,-16.560734 -18.74959,-16.095635 -21.91617,-13.685593 -3.72645,2.836157 -28.374504,23.898043 -31.238974,26.693853 l -3.06912,2.99556 v 2.61632 2.61632 l 1.48506,0.37171 c 0.81678,0.20445 2.46519,0.59134 3.66313,0.85977 8.2765,1.85458 16.97308,6.96173 23.607824,13.86392 7.00408,7.28643 11.34177,15.80127 13.41159,26.32686 0.49928,2.53893 1.02898,4.81127 1.17713,5.04965 0.19027,0.30617 4.76714,0.40317 15.58869,0.33037 l 15.31934,-0.10306 z"
       id="path1" /></g></svg>
